<?xml version="1.0" encoding="UTF-8" standalone="no"?>
<svg width="32px" height="32px" viewBox="0 0 32 32" version="1.1" xmlns="http://www.w3.org/2000/svg" xmlns:xlink="http://www.w3.org/1999/xlink">
    <!-- Generator: Sketch 3.6.1 (26313) - http://www.bohemiancoding.com/sketch -->
    <title>border-twitter</title>
    <desc>Created with Sketch.</desc>
    <defs></defs>
    <g id="Page-1" stroke="none" stroke-width="1" fill="none" fill-rule="evenodd">
        <g id="48px" transform="translate(-183.000000, -21.000000)" fill="#000000">
            <g id="border-twitter" transform="translate(183.000000, 21.000000)">
                <path d="M24,11.773864 C23.4113148,12.0262649 22.7786923,12.1968786 22.1146949,12.2735899 C22.7923797,11.8808187 23.3129089,11.2588805 23.5580017,10.5177514 C22.9236917,10.8814878 22.2211944,11.1455811 21.4734786,11.2878852 C20.874731,10.6710833 20.021578,10.2857143 19.0774567,10.2857143 C17.2646201,10.2857143 15.7948446,11.7066095 15.7948446,13.4592756 C15.7948446,13.7080206 15.8238757,13.9502396 15.8798442,14.1825487 C13.1517299,14.0501546 10.7329581,12.7867002 9.1139644,10.8665625 C8.831403,11.3352896 8.66949738,11.8804561 8.66949738,12.4620899 C8.66949738,13.5631787 9.24899512,14.5345925 10.1298042,15.103718 C9.59171253,15.0872216 9.08555826,14.9444644 8.64302874,14.7067472 C8.64271624,14.7199806 8.64271624,14.7332743 8.64271624,14.7466588 C8.64271624,16.2843279 9.77424307,17.5669979 11.2758622,17.8586154 C11.000457,17.931127 10.7104269,17.9699812 10.4110531,17.9699812 C10.1995227,17.9699812 9.99389846,17.9500405 9.79343049,17.9129991 C10.2111789,19.1737947 11.4234241,20.0914594 12.859856,20.1169895 C11.7364229,20.9682456 10.3210222,21.4755852 8.78305944,21.4755852 C8.51809173,21.4755852 8.2568115,21.4605692 8,21.4311718 C9.45268183,22.3316754 11.1781438,22.8571429 13.0318866,22.8571429 C19.0697068,22.8571429 22.3714751,18.0211623 22.3714751,13.827272 C22.3714751,13.6896812 22.3682564,13.5528155 22.3619439,13.416675 C23.0034414,12.9692179 23.5599392,12.4102743 24,11.773864 L24,11.773864 Z" id="Shape"></path>
                <path d="M1,2 L1,2 L1,30 C1,30.4823427 1.51615558,31 2,31 L30,31 C30.4823427,31 31,30.4838444 31,30 L31,2 C31,1.51765728 30.4838444,1 30,1 L2,1 C1.51765728,1 1,1.51615558 1,2 L1,2 Z M0,2 C0,1.01886908 1.0284543,0 2,0 L30,0 C30.9811309,0 32,1.0284543 32,2 L32,30 C32,30.9811309 30.9715457,32 30,32 L2,32 C1.01886908,32 0,30.9715457 0,30 L0,2 L0,2 Z" id="Rectangle-10"></path>
            </g>
        </g>
    </g>
</svg>