<?xml version="1.0" encoding="UTF-8" standalone="no"?>
<svg width="32px" height="32px" viewBox="0 0 32 32" version="1.1" xmlns="http://www.w3.org/2000/svg" xmlns:xlink="http://www.w3.org/1999/xlink">
    <!-- Generator: Sketch 3.6.1 (26313) - http://www.bohemiancoding.com/sketch -->
    <title>border-facebook</title>
    <desc>Created with Sketch.</desc>
    <defs></defs>
    <g id="Page-1" stroke="none" stroke-width="1" fill="none" fill-rule="evenodd">
        <g id="48px" transform="translate(-222.000000, -21.000000)" fill="#000000">
            <g id="border-facebook" transform="translate(222.000000, 21.000000)">
                <path d="M17.2467532,8 C15.5027347,8 14.0408163,9.37757692 13.9220779,11.2 L13.9220779,12.8 L11.4285714,12.8 L11.4285714,15.2 L13.9220779,15.2 L13.9220779,24 L16.4155844,24 L16.4155844,15.2 L19.7402597,15.2 L20.5714286,12.8 L16.4155844,12.8 L16.4155844,11.2 C16.6530612,10.7370769 16.9454286,10.4615385 17.2467532,10.4 L20.5714286,10.4 L20.5714286,8 L17.2467532,8 L17.2467532,8 Z" id="Shape"></path>
                <path d="M1,2 L1,2 L1,30 C1,30.4823427 1.51615558,31 2,31 L30,31 C30.4823427,31 31,30.4838444 31,30 L31,2 C31,1.51765728 30.4838444,1 30,1 L2,1 C1.51765728,1 1,1.51615558 1,2 L1,2 Z M0,2 C0,1.01886908 1.0284543,0 2,0 L30,0 C30.9811309,0 32,1.0284543 32,2 L32,30 C32,30.9811309 30.9715457,32 30,32 L2,32 C1.01886908,32 0,30.9715457 0,30 L0,2 L0,2 Z" id="Rectangle-10"></path>
            </g>
        </g>
    </g>
</svg>