<?xml version="1.0" encoding="UTF-8" standalone="no"?>
<svg width="55px" height="32px" viewBox="0 0 55 32" version="1.1" xmlns="http://www.w3.org/2000/svg" xmlns:xlink="http://www.w3.org/1999/xlink">
    <!-- Generator: Sketch 3.6.1 (26313) - http://www.bohemiancoding.com/sketch -->
    <title>border-line</title>
    <desc>Created with Sketch.</desc>
    <defs></defs>
    <g id="Page-1" stroke="none" stroke-width="1" fill="none" fill-rule="evenodd">
        <g id="48px" transform="translate(-262.000000, -21.000000)" fill="#000000">
            <g id="border-line" transform="translate(262.000000, 21.000000)">
                <g id="line" transform="translate(10.312500, 9.142857)">
                    <path d="M32.9050202,8.12942734 C33.6620539,8.12942734 34.2773331,7.53524594 34.2773331,6.80514579 C34.2773331,6.0738756 33.6620539,5.4796942 32.9050202,5.4796942 L29.0778501,5.4796942 L29.0778501,3.10823374 L32.9050202,3.10823374 C33.6620539,3.10823374 34.2773331,2.51405233 34.2773331,1.78297715 C34.2773331,1.05190197 33.6620539,0.457525567 32.9050202,0.457525567 L27.7041236,0.457525567 C26.9485033,0.457525567 26.3330222,1.05190197 26.3330222,1.78297715 L26.3330222,11.8253644 C26.3330222,12.5564395 26.9493111,13.150816 27.7041236,13.150816 L32.9050202,13.150816 C33.6606404,13.150816 34.2773331,12.5564395 34.2773331,11.8253644 C34.2773331,11.0952642 33.6606404,10.5001078 32.9050202,10.5001078 L29.0778501,10.5001078 L29.0778501,8.12942734 L32.9050202,8.12942734" id="Fill-1"></path>
                    <path d="M23.119314,0.457525567 C22.362886,0.457525567 21.747001,1.05190197 21.747001,1.78297715 L21.747001,7.99604366 L16.4172734,0.988330219 C16.1594094,0.655456031 15.7498963,0.457525567 15.3205942,0.457525567 C15.1737914,0.457525567 15.026181,0.479561175 14.8850322,0.525777451 C14.3238701,0.706742446 13.9476754,1.21161138 13.9476754,1.78297715 L13.9476754,11.8253644 C13.9476754,12.5564395 14.5625508,13.150816 15.3195845,13.150816 C16.0766183,13.150816 16.6920994,12.5564395 16.6920994,11.8253644 L16.6920994,5.61307788 L22.0204135,12.6209863 C22.2790852,12.9528855 22.689608,13.150816 23.1164869,13.150816 C23.2649051,13.150816 23.4117079,13.1287803 23.5532605,13.0825641 C24.1150284,12.9023791 24.4908192,12.3975102 24.4908192,11.8253644 L24.4908192,1.78297715 C24.4908192,1.05190197 23.87554,0.457525567 23.119314,0.457525567" id="Fill-2"></path>
                    <path d="M10.6029149,0.457525567 C9.84588119,0.457525567 9.23100582,1.05190197 9.23100582,1.78297715 L9.23100582,11.8253644 C9.23100582,12.5564395 9.84588119,13.150816 10.6029149,13.150816 C11.358939,13.150816 11.9748241,12.5564395 11.9748241,11.8253644 L11.9748241,1.78297715 C11.9748241,1.05190197 11.358939,0.457525567 10.6029149,0.457525567" id="Fill-3"></path>
                    <path d="M6.59643145,10.5001078 L2.76845364,10.5001078 L2.76845364,1.78297715 C2.76845364,1.05190197 2.15398213,0.457525567 1.39694838,0.457525567 C0.639914631,0.457525567 0.0246354008,1.05190197 0.0246354008,1.78297715 L0.0246354008,11.8253644 C0.0246354008,12.5564395 0.639914631,13.150816 1.39694838,13.150816 L6.59643145,13.150816 C7.3534652,13.150816 7.96793671,12.5564395 7.96793671,11.8253644 C7.96793671,11.0952642 7.3534652,10.5001078 6.59643145,10.5001078" id="Fill-4"></path>
                </g>
                <path d="M1,2 L1,2 L1,30 C1,30.4810306 1.51934647,31 2,31 L53,31 C53.4854862,31 54,30.4871541 54,30 L54,2 C54,1.51896938 53.4806535,1 53,1 L2,1 C1.51451383,1 1,1.51284594 1,2 L1,2 Z M0,2 C0,1.01886908 1.02545029,0 2,0 L53,0 C53.9732732,0 55,1.0284543 55,2 L55,30 C55,30.9811309 53.9745497,32 53,32 L2,32 C1.02672682,32 0,30.9715457 0,30 L0,2 L0,2 Z" id="Rectangle-10"></path>
            </g>
        </g>
    </g>
</svg>