<?xml version="1.0" encoding="UTF-8" standalone="no"?>
<svg width="21px" height="18px" viewBox="0 0 21 18" version="1.1" xmlns="http://www.w3.org/2000/svg" xmlns:xlink="http://www.w3.org/1999/xlink">
    <!-- Generator: Sketch 3.6.1 (26313) - http://www.bohemiancoding.com/sketch -->
    <title>cooment</title>
    <desc>Created with Sketch.</desc>
    <defs></defs>
    <g id="Page-1" stroke="none" stroke-width="1" fill="none" fill-rule="evenodd">
        <g id="Artboard-1" transform="translate(-304.000000, -27.000000)" fill="#000000">
            <g id="bubbles" transform="translate(304.000000, 27.000000)">
                <path d="M8.56292517,2.008975e-15 L8.56292517,2.008975e-15 C13.292086,2.008975e-15 17.1258503,3.07325707 17.1258503,6.86431548 C17.1258503,10.6553739 13.292086,13.728631 8.56292517,13.728631 C8.10876903,13.728631 7.66299741,13.7000037 7.22792946,13.6453999 C5.38857745,15.460119 3.26450818,15.7855153 1.14172336,15.8333333 L1.14172336,15.3891871 C2.28794225,14.8351265 3.21109694,13.8258929 3.21109694,12.6725335 C3.21109694,12.5116202 3.19839527,12.3536049 3.1748829,12.1990532 C1.23827034,10.9406213 0,9.01846168 0,6.86431548 C0,3.07325707 3.83376431,0 8.56292517,0 L8.56292517,2.008975e-15 Z M17.7680697,15.3860063 C17.7680697,16.3745647 18.4158907,17.2396726 19.4092971,17.7145666 L19.4092971,18.0952381 C17.5695883,18.0542764 15.8809081,17.7753553 14.2868482,16.2198717 C13.9097227,16.2667001 13.5234277,16.291263 13.1298186,16.291263 C11.4266885,16.291263 9.85792489,15.83609 8.60549004,15.0712481 C11.1863914,15.0623065 13.6230074,14.243285 15.4707083,12.7621261 C16.4020691,12.0154855 17.1368037,11.1394568 17.6545039,10.1583203 C18.2033518,9.11809152 18.4816468,8.00982887 18.4816468,6.86431548 C18.4816468,6.6796875 18.4736191,6.49611979 18.4592048,6.31354167 C19.7538121,7.37264323 20.5510204,8.81616257 20.5510204,10.4075186 C20.5510204,12.2539397 19.4778361,13.90149 17.7994671,14.9801711 C17.7790945,15.1126339 17.7680697,15.2480655 17.7680697,15.3860063 L17.7680697,15.3860063 Z" id="Shape"></path>
            </g>
        </g>
    </g>
</svg>