<?xml version="1.0" encoding="UTF-8" standalone="no"?>
<svg width="16px" height="14px" viewBox="0 0 16 14" version="1.1" xmlns="http://www.w3.org/2000/svg" xmlns:xlink="http://www.w3.org/1999/xlink">
    <!-- Generator: Sketch 3.6.1 (26313) - http://www.bohemiancoding.com/sketch -->
    <title>comment</title>
    <desc>Created with Sketch.</desc>
    <defs></defs>
    <g id="Page-1" stroke="none" stroke-width="1" fill="none" fill-rule="evenodd">
        <g id="Artboard-1" transform="translate(-307.000000, -29.000000)" fill="#000000">
            <g id="bubbles" transform="translate(307.000000, 29.000000)">
                <path d="M6.52413346,1.48029737e-15 L6.52413346,1.48029737e-15 C10.1273036,1.48029737e-15 13.0482669,2.26450521 13.0482669,5.05791667 C13.0482669,7.85132813 10.1273036,10.1158333 6.52413346,10.1158333 C6.17810973,10.1158333 5.83847422,10.0947396 5.50699387,10.0545052 C4.10558282,11.3916667 2.48724433,11.6314323 0.869884462,11.6666667 L0.869884462,11.339401 C1.74319409,10.9311458 2.44655005,10.1875 2.44655005,9.33765625 C2.44655005,9.21908854 2.43687258,9.10265625 2.4189584,8.98877604 C0.943444067,8.06151042 0,6.64518229 0,5.05791667 C0,2.26450521 2.92096329,0 6.52413346,0 L6.52413346,1.48029737e-15 Z M13.5375769,11.3370573 C13.5375769,12.0654687 14.0311548,12.7029167 14.7880358,13.0528385 L14.7880358,13.3333333 C13.386353,13.303151 12.0997395,13.0976302 10.8852177,11.9514844 C10.5978839,11.9859896 10.303564,12.0040885 10.0036713,12.0040885 C8.70604835,12.0040885 7.51079991,11.6686979 6.55656384,11.1051302 C8.52296485,11.0985417 10.3794342,10.4950521 11.7872063,9.40367187 C12.4968145,8.85351562 13.0566124,8.20802083 13.4510506,7.48507812 C13.8692204,6.71859375 14.0812547,5.90197917 14.0812547,5.05791667 C14.0812547,4.921875 14.0751383,4.78661458 14.0641561,4.65208333 C15.0505235,5.43247396 15.6579203,6.49611979 15.6579203,7.66869792 C15.6579203,9.02921875 14.8402561,10.2432031 13.5614988,11.0380208 C13.5459768,11.135625 13.5375769,11.2354167 13.5375769,11.3370573 L13.5375769,11.3370573 Z" id="Shape"></path>
            </g>
        </g>
    </g>
</svg>