<?xml version="1.0" encoding="UTF-8" standalone="no"?>
<svg width="15px" height="17px" viewBox="0 0 15 17" version="1.1" xmlns="http://www.w3.org/2000/svg" xmlns:xlink="http://www.w3.org/1999/xlink">
    <!-- Generator: Sketch 3.7 (28169) - http://www.bohemiancoding.com/sketch -->
    <title>facebook</title>
    <desc>Created with Sketch.</desc>
    <defs></defs>
    <g id="Page-1" stroke="none" stroke-width="1" fill="none" fill-rule="evenodd">
        <g id="48px" transform="translate(-112.000000, -19.000000)">
            <g id="facebook" transform="translate(112.000000, 20.000000)">
                <g id="Group">
                    <g id="icomoon-ignore"></g>
                    <path d="M13.59375,0 L1.40625,0 C0.6328125,0 0,0.6328125 0,1.40625 L0,13.59375 C0,14.3671875 0.6328125,15 1.40625,15 L7.5,15 L7.5,8.4375 L5.625,8.4375 L5.625,6.5625 L7.5,6.5625 L7.5,5.625 C7.5,4.07519531 8.76269531,2.8125 10.3125,2.8125 L12.1875,2.8125 L12.1875,4.6875 L10.3125,4.6875 C9.796875,4.6875 9.375,5.109375 9.375,5.625 L9.375,6.5625 L12.1875,6.5625 L11.71875,8.4375 L9.375,8.4375 L9.375,15 L13.59375,15 C14.3671875,15 15,14.3671875 15,13.59375 L15,1.40625 C15,0.6328125 14.3671875,0 13.59375,0 L13.59375,0 Z" id="Shape" fill="#000000"></path>
                </g>
            </g>
        </g>
    </g>
</svg>