<?xml version="1.0" encoding="UTF-8" standalone="no"?>
<svg width="26px" height="11px" viewBox="0 0 26 11" version="1.1" xmlns="http://www.w3.org/2000/svg" xmlns:xlink="http://www.w3.org/1999/xlink">
    <!-- Generator: Sketch 3.6.1 (26313) - http://www.bohemiancoding.com/sketch -->
    <title>line</title>
    <desc>Created with Sketch.</desc>
    <defs></defs>
    <g id="Page-1" stroke="none" stroke-width="1" fill="none" fill-rule="evenodd">
        <g id="Artboard-1" transform="translate(-205.000000, -32.000000)" fill="#000000">
            <g id="line" transform="translate(205.000000, 32.000000)">
                <path d="M24.8881607,6.52047818 C25.4607535,6.52047818 25.9261283,6.04389518 25.9261283,5.45829402 C25.9261283,4.87175439 25.4607535,4.39517139 24.8881607,4.39517139 L21.9934284,4.39517139 L21.9934284,2.49306248 L24.8881607,2.49306248 C25.4607535,2.49306248 25.9261283,2.01647948 25.9261283,1.43009626 C25.9261283,0.843713042 25.4607535,0.366973632 24.8881607,0.366973632 L20.9543917,0.366973632 C20.382868,0.366973632 19.9173404,0.843713042 19.9173404,1.43009626 L19.9173404,9.48492767 C19.9173404,10.0713109 20.3834789,10.5480503 20.9543917,10.5480503 L24.8881607,10.5480503 C25.4596844,10.5480503 25.9261283,10.0713109 25.9261283,9.48492767 C25.9261283,8.8993265 25.4596844,8.42196145 24.8881607,8.42196145 L21.9934284,8.42196145 L21.9934284,6.52047818 L24.8881607,6.52047818" id="Fill-1"></path>
                <path d="M17.4866084,0.366973632 C16.9144738,0.366973632 16.4486407,0.843713042 16.4486407,1.43009626 L16.4486407,6.41349335 L12.4174286,0.792723197 C12.2223896,0.525730358 11.9126489,0.366973632 11.5879403,0.366973632 C11.4769041,0.366973632 11.3652569,0.384648026 11.2584971,0.42171733 C10.8340545,0.566866337 10.5495145,0.971813296 10.5495145,1.43009626 L10.5495145,9.48492767 C10.5495145,10.0713109 11.0145839,10.5480503 11.5871767,10.5480503 C12.1597695,10.5480503 12.625297,10.0713109 12.625297,9.48492767 L12.625297,4.50215622 L16.6554401,10.1230828 C16.8510899,10.3892936 17.1615944,10.5480503 17.4844701,10.5480503 C17.5967283,10.5480503 17.7077645,10.5303759 17.8148297,10.4933066 C18.2397306,10.3487832 18.5239651,9.94383627 18.5239651,9.48492767 L18.5239651,1.43009626 C18.5239651,0.843713042 18.0585902,0.366973632 17.4866084,0.366973632" id="Fill-2"></path>
                <path d="M8.0196593,0.366973632 C7.4470665,0.366973632 6.98199713,0.843713042 6.98199713,1.43009626 L6.98199713,9.48492767 C6.98199713,10.0713109 7.4470665,10.5480503 8.0196593,10.5480503 C8.59148844,10.5480503 9.05732147,10.0713109 9.05732147,9.48492767 L9.05732147,1.43009626 C9.05732147,0.843713042 8.59148844,0.366973632 8.0196593,0.366973632" id="Fill-3"></path>
                <path d="M4.98930088,8.42196145 L2.09395766,8.42196145 L2.09395766,1.43009626 C2.09395766,0.843713042 1.62919376,0.366973632 1.05660096,0.366973632 C0.484008157,0.366973632 0.0186333213,0.843713042 0.0186333213,1.43009626 L0.0186333213,9.48492767 C0.0186333213,10.0713109 0.484008157,10.5480503 1.05660096,10.5480503 L4.98930088,10.5480503 C5.56189367,10.5480503 6.02665758,10.0713109 6.02665758,9.48492767 C6.02665758,8.8993265 5.56189367,8.42196145 4.98930088,8.42196145" id="Fill-4"></path>
            </g>
        </g>
    </g>
</svg>