<?xml version="1.0" encoding="UTF-8" standalone="no"?>
<svg width="40px" height="16px" viewBox="0 0 40 16" version="1.1" xmlns="http://www.w3.org/2000/svg" xmlns:xlink="http://www.w3.org/1999/xlink">
    <!-- Generator: Sketch 3.6.1 (26313) - http://www.bohemiancoding.com/sketch -->
    <title>line</title>
    <desc>Created with Sketch.</desc>
    <defs></defs>
    <g id="Page-1" stroke="none" stroke-width="1" fill="none" fill-rule="evenodd">
        <g id="Artboard-1" transform="translate(-183.000000, -28.000000)" fill="#000000">
            <g id="line" transform="translate(183.000000, 28.000000)">
                <path d="M38.289478,9.4843319 C39.17039,9.4843319 39.8863513,8.79112026 39.8863513,7.93933675 C39.8863513,7.0861882 39.17039,6.39297656 38.289478,6.39297656 L33.8360437,6.39297656 L33.8360437,3.62627269 L38.289478,3.62627269 C39.17039,3.62627269 39.8863513,2.93306106 39.8863513,2.08014001 C39.8863513,1.22721897 39.17039,0.533779828 38.289478,0.533779828 L32.2375256,0.533779828 C31.3582584,0.533779828 30.6420622,1.22721897 30.6420622,2.08014001 L30.6420622,13.7962584 C30.6420622,14.6491795 31.3591983,15.3426186 32.2375256,15.3426186 L38.289478,15.3426186 C39.1687452,15.3426186 39.8863513,14.6491795 39.8863513,13.7962584 C39.8863513,12.9444749 39.1687452,12.2501257 38.289478,12.2501257 L33.8360437,12.2501257 L33.8360437,9.4843319 L38.289478,9.4843319" id="Fill-1"></path>
                <path d="M26.9024744,0.533779828 C26.0222673,0.533779828 25.3056011,1.22721897 25.3056011,2.08014001 L25.3056011,9.3287176 L19.1037363,1.15305192 C18.8036764,0.764698702 18.3271521,0.533779828 17.8276005,0.533779828 C17.6567755,0.533779828 17.4850106,0.559488038 17.3207648,0.613407026 C16.6677761,0.824532854 16.2300223,1.41354661 16.2300223,2.08014001 L16.2300223,13.7962584 C16.2300223,14.6491795 16.9455136,15.3426186 17.8264256,15.3426186 C18.7073376,15.3426186 19.4235339,14.6491795 19.4235339,13.7962584 L19.4235339,6.54859086 L25.6237539,14.724484 C25.9247537,15.1116997 26.4024529,15.3426186 26.8991848,15.3426186 C27.0718896,15.3426186 27.2427146,15.3169104 27.4074304,15.2629914 C28.0611239,15.0527756 28.4984078,14.4637618 28.4984078,13.7962584 L28.4984078,2.08014001 C28.4984078,1.22721897 27.7824465,0.533779828 26.9024744,0.533779828" id="Fill-2"></path>
                <path d="M12.3379374,0.533779828 C11.4570254,0.533779828 10.741534,1.22721897 10.741534,2.08014001 L10.741534,13.7962584 C10.741534,14.6491795 11.4570254,15.3426186 12.3379374,15.3426186 C13.2176745,15.3426186 13.9343407,14.6491795 13.9343407,13.7962584 L13.9343407,2.08014001 C13.9343407,1.22721897 13.2176745,0.533779828 12.3379374,0.533779828" id="Fill-3"></path>
                <path d="M7.6758475,12.2501257 L3.22147333,12.2501257 L3.22147333,2.08014001 C3.22147333,1.22721897 2.50645193,0.533779828 1.62553993,0.533779828 C0.744627934,0.533779828 0.0286666481,1.22721897 0.0286666481,2.08014001 L0.0286666481,13.7962584 C0.0286666481,14.6491795 0.744627934,15.3426186 1.62553993,15.3426186 L7.6758475,15.3426186 C8.5567595,15.3426186 9.2717809,14.6491795 9.2717809,13.7962584 C9.2717809,12.9444749 8.5567595,12.2501257 7.6758475,12.2501257" id="Fill-4"></path>
            </g>
        </g>
    </g>
</svg>