<?xml version="1.0" encoding="UTF-8" standalone="no"?>
<svg width="30px" height="17px" viewBox="0 0 30 17" version="1.1" xmlns="http://www.w3.org/2000/svg" xmlns:xlink="http://www.w3.org/1999/xlink">
    <!-- Generator: Sketch 3.7 (28169) - http://www.bohemiancoding.com/sketch -->
    <title>line</title>
    <desc>Created with Sketch.</desc>
    <defs></defs>
    <g id="Page-1" stroke="none" stroke-width="1" fill="none" fill-rule="evenodd">
        <g id="test" transform="translate(-140.000000, -19.000000)" fill="#000000">
            <g id="line" transform="translate(140.000000, 21.000000)">
                <path d="M28.7171085,7.70601967 C29.3777925,7.70601967 29.9147635,7.14278521 29.9147635,6.45071111 C29.9147635,5.75752791 29.3777925,5.19429346 28.7171085,5.19429346 L25.3770328,5.19429346 L25.3770328,2.94634656 L28.7171085,2.94634656 C29.3777925,2.94634656 29.9147635,2.38311211 29.9147635,1.69011376 C29.9147635,0.997115413 29.3777925,0.43369611 28.7171085,0.43369611 L24.1781442,0.43369611 C23.5186938,0.43369611 22.9815466,0.997115413 22.9815466,1.69011376 L22.9815466,11.20946 C22.9815466,11.9024583 23.5193987,12.4658776 24.1781442,12.4658776 L28.7171085,12.4658776 C29.3765589,12.4658776 29.9147635,11.9024583 29.9147635,11.20946 C29.9147635,10.5173859 29.3765589,9.95322717 28.7171085,9.95322717 L25.3770328,9.95322717 L25.3770328,7.70601967 L28.7171085,7.70601967" id="Fill-1"></path>
                <path d="M20.1768558,0.43369611 C19.5167005,0.43369611 18.9792009,0.997115413 18.9792009,1.69011376 L18.9792009,7.57958305 L14.3278022,0.936854687 C14.1027573,0.621317696 13.7453641,0.43369611 13.3707004,0.43369611 C13.2425816,0.43369611 13.1137579,0.454584031 12.9905736,0.498393209 C12.5008321,0.669932944 12.1725167,1.14850662 12.1725167,1.69011376 L12.1725167,11.20946 C12.1725167,11.9024583 12.7091352,12.4658776 13.3698192,12.4658776 C14.0305032,12.4658776 14.5676504,11.9024583 14.5676504,11.20946 L14.5676504,5.32073007 L19.2178155,11.9636433 C19.4435653,12.278256 19.8018397,12.4658776 20.1743886,12.4658776 C20.3039172,12.4658776 20.432036,12.4449897 20.5555728,12.4011805 C21.045843,12.2303802 21.3738059,11.7518065 21.3738059,11.20946 L21.3738059,1.69011376 C21.3738059,0.997115413 20.8368349,0.43369611 20.1768558,0.43369611" id="Fill-2"></path>
                <path d="M9.25345304,0.43369611 C8.59276904,0.43369611 8.05615053,0.997115413 8.05615053,1.69011376 L8.05615053,11.20946 C8.05615053,11.9024583 8.59276904,12.4658776 9.25345304,12.4658776 C9.91325589,12.4658776 10.4507555,11.9024583 10.4507555,11.20946 L10.4507555,1.69011376 C10.4507555,0.997115413 9.91325589,0.43369611 9.25345304,0.43369611" id="Fill-3"></path>
                <path d="M5.75688563,9.95322717 L2.416105,9.95322717 L2.416105,1.69011376 C2.416105,0.997115413 1.87983895,0.43369611 1.21915495,0.43369611 C0.558470951,0.43369611 0.0214999861,0.997115413 0.0214999861,1.69011376 L0.0214999861,11.20946 C0.0214999861,11.9024583 0.558470951,12.4658776 1.21915495,12.4658776 L5.75688563,12.4658776 C6.41756962,12.4658776 6.95383567,11.9024583 6.95383567,11.20946 C6.95383567,10.5173859 6.41756962,9.95322717 5.75688563,9.95322717" id="Fill-4"></path>
            </g>
        </g>
    </g>
</svg>