<?xml version="1.0" encoding="UTF-8" standalone="no"?>
<svg width="16px" height="12px" viewBox="0 0 16 12" version="1.1" xmlns="http://www.w3.org/2000/svg" xmlns:xlink="http://www.w3.org/1999/xlink">
    <!-- Generator: Sketch 3.6.1 (26313) - http://www.bohemiancoding.com/sketch -->
    <title>mail</title>
    <desc>Created with Sketch.</desc>
    <defs></defs>
    <g id="Page-1" stroke="none" stroke-width="1" fill="none" fill-rule="evenodd">
        <g id="48px" transform="translate(-72.000000, -22.000000)" fill="#000000">
            <g id="mail" transform="translate(72.000000, 22.000000)">
                <path d="M1.00087166,0 L14.9991283,0 C15.5518945,0 16,0.455760956 16,1.00247329 L16,10.9975267 C16,11.5511774 15.5553691,12 14.9991283,12 L1.00087166,12 C0.448105505,12 0,11.544239 0,10.9975267 L0,1.00247329 C0,0.448822582 0.444630861,0 1.00087166,0 Z M2.03833008,10.050293 L14,10.050293 L14,2 L2.03833008,2 L2.03833008,10.050293 Z" id="Rectangle-11"></path>
                <path d="M8,8 L15,3 L14.4741211,1.15545654 L8,6 L1.51037598,1.15545654 L1,3 L8,8 Z" id="Line"></path>
            </g>
        </g>
    </g>
</svg>