<?xml version="1.0" encoding="UTF-8" standalone="no"?>
<svg width="16px" height="12px" viewBox="0 0 16 12" version="1.1" xmlns="http://www.w3.org/2000/svg" xmlns:xlink="http://www.w3.org/1999/xlink">
    <!-- Generator: Sketch 3.6.1 (26313) - http://www.bohemiancoding.com/sketch -->
    <title>mail</title>
    <desc>Created with Sketch.</desc>
    <defs></defs>
    <g id="Page-1" stroke="none" stroke-width="1" fill="none" fill-rule="evenodd">
        <g id="48px" transform="translate(-72.000000, -22.000000)" fill="#000000">
            <path d="M86.7336755,22 L73.2663245,22 C72.5682225,22 72,22.6151017 72,23.3712217 L72,32.6284335 C72,33.3845535 72.5682225,34 73.2663245,34 L86.7336755,34 C87.4317775,34 88,33.3848983 88,32.6284335 L88,23.3712217 C87.9996817,22.6151017 87.4317775,22 86.7336755,22 L86.7336755,22 Z M79.8990888,29.9608091 C79.8787155,29.9825307 79.8621623,29.9977014 79.8500657,30.0077003 C79.8395607,29.9997701 79.8268274,29.9880474 79.8118658,29.9721871 L73.8651068,23.1688312 L86.0085154,23.1688312 L79.8990888,29.9608091 L79.8990888,29.9608091 Z M77.0538379,28.5171819 L73.0791453,32.2139984 L73.0791453,23.9697736 L77.0538379,28.5171819 L77.0538379,28.5171819 Z M77.7968246,29.3667395 L79.0386375,30.7876106 C79.2847081,31.0534421 79.5664319,31.1865303 79.8487923,31.1865303 C80.1327444,31.1865303 80.4176515,31.0517182 80.6669054,30.7814044 L82.1184991,29.1677968 L85.9652222,32.8304793 L74.0726593,32.8304793 L77.7968246,29.3667395 L77.7968246,29.3667395 Z M86.9208547,32.1840018 L82.8726274,28.3292725 L86.9208547,23.8294449 L86.9208547,32.1840018 L86.9208547,32.1840018 Z" id="Shape"></path>
        </g>
    </g>
</svg>