<?xml version="1.0" encoding="UTF-8" standalone="no"?>
<svg width="18px" height="18px" viewBox="0 0 18 18" version="1.1" xmlns="http://www.w3.org/2000/svg" xmlns:xlink="http://www.w3.org/1999/xlink">
    <!-- Generator: Sketch 3.6.1 (26313) - http://www.bohemiancoding.com/sketch -->
    <title>search</title>
    <desc>Created with Sketch.</desc>
    <defs></defs>
    <g id="Page-1" stroke="none" stroke-width="1" fill="none" fill-rule="evenodd">
        <g id="Artboard-1" transform="translate(-26.000000, -26.000000)" fill="#000000">
            <g id="search" transform="translate(35.500000, 35.500000) rotate(-45.000000) translate(-35.500000, -35.500000) translate(28.000000, 25.000000)">
                <path d="M7.18241842,14.1507448 C11.1275664,14.1507448 14.3353705,11.0116765 14.3353705,7.12716146 C14.3353705,3.24264638 11.1275664,0.103578125 7.18241842,0.103578125 C3.23727049,0.103578125 0.029466332,3.24264638 0.029466332,7.12716146 C0.029466332,11.0116765 3.23727049,14.1507448 7.18241842,14.1507448 L7.18241842,14.1507448 Z M7.18241842,12.2863385 C4.25188341,12.2863385 1.88584525,9.97099916 1.88584525,7.12716146 C1.88584525,4.28332375 4.25188341,1.96798437 7.18241842,1.96798437 C10.1129534,1.96798437 12.4789916,4.28332375 12.4789916,7.12716146 C12.4789916,9.97099916 10.1129534,12.2863385 7.18241842,12.2863385 L7.18241842,12.2863385 Z" id="Shape"></path>
                <rect id="Rectangle-28" x="5.74593474" y="12.2814062" width="2.87296737" height="8.43421875" rx="15.2742857"></rect>
            </g>
        </g>
    </g>
</svg>