<?xml version="1.0" encoding="UTF-8" standalone="no"?>
<svg width="21px" height="21px" viewBox="0 0 21 21" version="1.1" xmlns="http://www.w3.org/2000/svg" xmlns:xlink="http://www.w3.org/1999/xlink">
    <!-- Generator: Sketch 3.6.1 (26313) - http://www.bohemiancoding.com/sketch -->
    <title>search</title>
    <desc>Created with Sketch.</desc>
    <defs></defs>
    <g id="Page-1" stroke="none" stroke-width="1" fill="none" fill-rule="evenodd">
        <g id="Artboard-1" transform="translate(-24.000000, -24.000000)" fill="#000000">
            <g id="search" transform="translate(35.931662, 34.931662) rotate(-45.000000) translate(-35.931662, -34.931662) translate(27.176016, 22.570750)">
                <path d="M8.38489556,16.6586782 C12.9905383,16.6586782 16.7353915,12.9632736 16.7353915,8.39030672 C16.7353915,3.81733988 12.9905383,0.121935253 8.38489556,0.121935253 C3.7792528,0.121935253 0.0343995715,3.81733988 0.0343995715,8.39030672 C0.0343995715,12.9632736 3.7792528,16.6586782 8.38489556,16.6586782 L8.38489556,16.6586782 Z M8.38489556,14.4638436 C4.96373174,14.4638436 2.20157258,11.7381572 2.20157258,8.39030672 C2.20157258,5.04245628 4.96373174,2.31676982 8.38489556,2.31676982 C11.8060594,2.31676982 14.5682185,5.04245628 14.5682185,8.39030672 C14.5682185,11.7381572 11.8060594,14.4638436 8.38489556,14.4638436 L8.38489556,14.4638436 Z" id="Shape"></path>
                <rect id="Rectangle-28" x="6.70791645" y="14.4580372" width="3.35395822" height="9.92901349" rx="17.82"></rect>
            </g>
        </g>
    </g>
</svg>