<?xml version="1.0" encoding="UTF-8" standalone="no"?>
<svg width="15px" height="17px" viewBox="0 0 15 17" version="1.1" xmlns="http://www.w3.org/2000/svg" xmlns:xlink="http://www.w3.org/1999/xlink">
    <!-- Generator: Sketch 3.7 (28169) - http://www.bohemiancoding.com/sketch -->
    <title>twitter</title>
    <desc>Created with Sketch.</desc>
    <defs></defs>
    <g id="Page-1" stroke="none" stroke-width="1" fill="none" fill-rule="evenodd">
        <g id="48px" transform="translate(-88.000000, -19.000000)" fill="#000000">
            <path d="M103,23.4205066 C102.448108,23.6614346 101.855024,23.8242932 101.232526,23.8975176 C101.867856,23.5225996 102.355852,22.9289314 102.585627,22.22149 C101.990961,22.5686929 101.33237,22.820782 100.631386,22.9566177 C100.07006,22.3678522 99.2702294,22 98.3851157,22 C96.6855813,22 95.3076668,23.3563091 95.3076668,25.0293085 C95.3076668,25.2667469 95.3348835,25.497956 95.387354,25.7197055 C92.8297468,25.5933293 90.5621482,24.3873047 89.0443416,22.554446 C88.7794403,23.0018674 88.6276538,23.5222535 88.6276538,24.0774494 C88.6276538,25.1284887 89.1709329,26.0557474 89.9966914,26.5990036 C89.4922305,26.583257 89.0177109,26.4469888 88.6028394,26.2200769 C88.6025465,26.2327087 88.6025465,26.2453982 88.6025465,26.2581743 C88.6025465,27.7259494 89.6633529,28.9503162 91.0711208,29.2286783 C90.8129285,29.297894 90.5410252,29.334982 90.2603623,29.334982 C90.0620525,29.334982 89.8692798,29.3159477 89.6813411,29.2805901 C90.0729802,30.4840768 91.2094601,31.3600294 92.556115,31.3843991 C91.5028965,32.1969617 90.1759583,32.6812404 88.7341182,32.6812404 C88.485711,32.6812404 88.2407608,32.666907 88,32.6388458 C89.3618892,33.4984174 90.9795098,34 92.7173937,34 C98.3778501,34 101.473258,29.3838367 101.473258,25.3805778 C101.473258,25.2492412 101.47024,25.1185967 101.464322,24.9886443 C102.065726,24.5615262 102.587443,24.0279891 103,23.4205066 L103,23.4205066 Z" id="Shape"></path>
        </g>
    </g>
</svg>