<?xml version="1.0" encoding="UTF-8" standalone="no"?>
<svg width="20px" height="16px" viewBox="0 0 20 16" version="1.1" xmlns="http://www.w3.org/2000/svg" xmlns:xlink="http://www.w3.org/1999/xlink">
    <!-- Generator: Sketch 3.6.1 (26313) - http://www.bohemiancoding.com/sketch -->
    <title>twitter</title>
    <desc>Created with Sketch.</desc>
    <defs></defs>
    <g id="Page-1" stroke="none" stroke-width="1" fill="none" fill-rule="evenodd">
        <g id="Artboard-1" transform="translate(-81.000000, -28.000000)" fill="#000000">
            <path d="M101,29.8501298 C100.264143,30.163925 99.4733653,30.3760392 98.6433686,30.4714098 C99.4904746,29.9831002 100.141136,29.2098808 100.447502,28.2884783 C99.6546146,28.7406905 98.7764931,29.0690223 97.8418483,29.2459406 C97.0934137,28.4791068 96.0269726,28 94.8468209,28 C92.5807751,28 90.7435557,29.7665162 90.7435557,31.9455037 C90.7435557,32.2547539 90.7798446,32.5558906 90.8498053,32.8447069 C87.4396623,32.6801091 84.4161976,31.1093299 82.3924555,28.7221347 C82.0392538,29.3048758 81.8368717,29.9826495 81.8368717,30.7057608 C81.8368717,32.0746803 82.5612439,33.2823825 83.6622552,33.9899431 C82.9896407,33.9694341 82.3569478,33.7919524 81.8037859,33.4964124 C81.8033953,33.5128647 81.8033953,33.5293921 81.8033953,33.5460321 C81.8033953,35.4577265 83.2178038,37.0523953 85.0948278,37.4149463 C84.7505713,37.5050958 84.3880336,37.5534009 84.0138164,37.5534009 C83.7494033,37.5534009 83.4923731,37.5286098 83.2417881,37.4825584 C83.7639736,39.0500321 85.2792802,40.1909111 87.07482,40.2226512 C85.6705286,41.2809682 83.9012777,41.9117139 81.9788243,41.9117139 C81.6476147,41.9117139 81.3210144,41.8930455 81,41.8564974 C82.8158523,42.976041 84.9726798,43.629324 87.2898582,43.629324 C94.8371334,43.629324 98.9643439,37.6170314 98.9643439,32.4030122 C98.9643439,32.2319536 98.9603205,32.0617965 98.9524299,31.8925409 C99.7543017,31.3362436 100.449924,30.6413415 101,29.8501298 L101,29.8501298 Z" id="Shape"></path>
        </g>
    </g>
</svg>