<?xml version="1.0" encoding="UTF-8" standalone="no"?>
<svg width="15px" height="12px" viewBox="0 0 15 12" version="1.1" xmlns="http://www.w3.org/2000/svg" xmlns:xlink="http://www.w3.org/1999/xlink">
    <!-- Generator: Sketch 3.6.1 (26313) - http://www.bohemiancoding.com/sketch -->
    <title>twitter</title>
    <desc>Created with Sketch.</desc>
    <defs></defs>
    <g id="Page-1" stroke="none" stroke-width="1" fill="none" fill-rule="evenodd">
        <g id="Artboard-1" transform="translate(-84.000000, -30.000000)" fill="#000000">
            <path d="M99,31.4205066 C98.4481076,31.6614346 97.855024,31.8242932 97.2325264,31.8975176 C97.867856,31.5225996 98.3558521,30.9289314 98.5856266,30.22149 C97.990961,30.5686929 97.3323698,30.820782 96.6313862,30.9566177 C96.0700603,30.3678522 95.2702294,30 94.3851157,30 C92.6855813,30 91.3076668,31.3563091 91.3076668,33.0293085 C91.3076668,33.2667469 91.3348835,33.497956 91.387354,33.7197055 C88.8297468,33.5933293 86.5621482,32.3873047 85.0443416,30.554446 C84.7794403,31.0018674 84.6276538,31.5222535 84.6276538,32.0774494 C84.6276538,33.1284887 85.1709329,34.0557474 85.9966914,34.5990036 C85.4922305,34.583257 85.0177109,34.4469888 84.6028394,34.2200769 C84.6025465,34.2327087 84.6025465,34.2453982 84.6025465,34.2581743 C84.6025465,35.7259494 85.6633529,36.9503162 87.0711208,37.2286783 C86.8129285,37.297894 86.5410252,37.334982 86.2603623,37.334982 C86.0620525,37.334982 85.8692798,37.3159477 85.6813411,37.2805901 C86.0729802,38.4840768 87.2094601,39.3600294 88.556115,39.3843991 C87.5028965,40.1969617 86.1759583,40.6812404 84.7341182,40.6812404 C84.485711,40.6812404 84.2407608,40.666907 84,40.6388458 C85.3618892,41.4984174 86.9795098,42 88.7173937,42 C94.3778501,42 97.4732579,37.3838367 97.4732579,33.3805778 C97.4732579,33.2492412 97.4702404,33.1185967 97.4643224,32.9886443 C98.0657263,32.5615262 98.587443,32.0279891 99,31.4205066 L99,31.4205066 Z" id="Shape"></path>
        </g>
    </g>
</svg>