<?xml version="1.0" encoding="UTF-8" standalone="no"?>
<svg width="16px" height="19px" viewBox="0 0 16 19" version="1.1" xmlns="http://www.w3.org/2000/svg" xmlns:xlink="http://www.w3.org/1999/xlink">
    <!-- Generator: Sketch 3.6.1 (26313) - http://www.bohemiancoding.com/sketch -->
    <title>up</title>
    <desc>Created with Sketch.</desc>
    <defs></defs>
    <g id="Page-1" stroke="none" stroke-width="1" fill="none" fill-rule="evenodd">
        <g id="Artboard-1" transform="translate(-363.000000, -28.000000)" fill="#000000">
            <path d="M371.942793,28.3938132 C371.422126,27.8687289 370.577916,27.8687289 370.057207,28.3938132 L363.390532,35.1165061 C362.869823,35.6415904 362.869823,36.4928934 363.390532,37.0179777 C363.911241,37.543062 364.75545,37.5431041 365.276159,37.0179777 L369.666665,32.5905383 L369.666665,45.4789908 C369.666665,46.2215543 370.263624,46.8235294 371,46.8235294 C371.736376,46.8235294 372.333335,46.2215543 372.333335,45.4789908 L372.333335,32.5905383 L376.723882,37.0179777 C376.984216,37.2804989 377.325467,37.4117595 377.666675,37.4117595 C378.007884,37.4117595 378.349135,37.2804989 378.609468,37.0179357 C379.130177,36.4928514 379.130177,35.6415904 378.609468,35.1165061 L371.942793,28.3938132 Z" id="Shape"></path>
        </g>
    </g>
</svg>