<?xml version="1.0" encoding="UTF-8" standalone="no"?>
<svg width="48px" height="48px" viewBox="0 0 48 48" version="1.1" xmlns="http://www.w3.org/2000/svg" xmlns:xlink="http://www.w3.org/1999/xlink">
    <!-- Generator: Sketch 3.6.1 (26313) - http://www.bohemiancoding.com/sketch -->
    <title>line</title>
    <desc>Created with Sketch.</desc>
    <defs></defs>
    <g id="Page-1" stroke="none" stroke-width="1" fill="none" fill-rule="evenodd">
        <g id="Artboard-1" transform="translate(-179.000000, -12.000000)" fill="#000000">
            <g id="line" transform="translate(181.000000, 27.000000)">
                <path d="M42.1184258,10.6698734 C43.087429,10.6698734 43.8749864,9.8900103 43.8749864,8.93175384 C43.8749864,7.97196172 43.087429,7.19209864 42.1184258,7.19209864 L37.2196481,7.19209864 L37.2196481,4.07955678 L42.1184258,4.07955678 C43.087429,4.07955678 43.8749864,3.29969369 43.8749864,2.34015752 C43.8749864,1.38062134 43.087429,0.600502307 42.1184258,0.600502307 L35.4612782,0.600502307 C34.4940843,0.600502307 33.7062684,1.38062134 33.7062684,2.34015752 L33.7062684,15.5207907 C33.7062684,16.4803269 34.4951182,17.2604459 35.4612782,17.2604459 L42.1184258,17.2604459 C43.0856197,17.2604459 43.8749864,16.4803269 43.8749864,15.5207907 C43.8749864,14.5625343 43.0856197,13.7813915 42.1184258,13.7813915 L37.2196481,13.7813915 L37.2196481,10.6698734 L42.1184258,10.6698734" id="Fill-1"></path>
                <path d="M29.5927219,0.600502307 C28.6244941,0.600502307 27.8361613,1.38062134 27.8361613,2.34015752 L27.8361613,10.4948073 L21.0141099,1.29718341 C20.684044,0.86028604 20.1598673,0.600502307 19.6103606,0.600502307 C19.422453,0.600502307 19.2335116,0.629424042 19.0528412,0.690082904 C18.3345537,0.927599461 17.8530245,1.59023994 17.8530245,2.34015752 L17.8530245,15.5207907 C17.8530245,16.4803269 18.640065,17.2604459 19.6090682,17.2604459 C20.5780714,17.2604459 21.3658873,16.4803269 21.3658873,15.5207907 L21.3658873,7.36716472 L28.1861293,16.5650446 C28.5172291,17.0006622 29.0426982,17.2604459 29.5891033,17.2604459 C29.7790786,17.2604459 29.9669861,17.2315242 30.1481734,17.1708653 C30.8672363,16.9343726 31.3482486,16.2717321 31.3482486,15.5207907 L31.3482486,2.34015752 C31.3482486,1.38062134 30.5606912,0.600502307 29.5927219,0.600502307" id="Fill-2"></path>
                <path d="M13.5717311,0.600502307 C12.6027279,0.600502307 11.8156874,1.38062134 11.8156874,2.34015752 L11.8156874,15.5207907 C11.8156874,16.4803269 12.6027279,17.2604459 13.5717311,17.2604459 C14.539442,17.2604459 15.3277748,16.4803269 15.3277748,15.5207907 L15.3277748,2.34015752 C15.3277748,1.38062134 14.539442,0.600502307 13.5717311,0.600502307" id="Fill-3"></path>
                <path d="M8.44343225,13.7813915 L3.54362066,13.7813915 L3.54362066,2.34015752 C3.54362066,1.38062134 2.75709713,0.600502307 1.78809393,0.600502307 C0.819090728,0.600502307 0.031533313,1.38062134 0.031533313,2.34015752 L0.031533313,15.5207907 C0.031533313,16.4803269 0.819090728,17.2604459 1.78809393,17.2604459 L8.44343225,17.2604459 C9.41243545,17.2604459 10.198959,16.4803269 10.198959,15.5207907 C10.198959,14.5625343 9.41243545,13.7813915 8.44343225,13.7813915" id="Fill-4"></path>
            </g>
        </g>
    </g>
</svg>