<?xml version="1.0" encoding="UTF-8" standalone="no"?>
<svg width="120px" height="48px" viewBox="0 0 120 48" version="1.1" xmlns="http://www.w3.org/2000/svg" xmlns:xlink="http://www.w3.org/1999/xlink">
    <!-- Generator: Sketch 3.6.1 (26313) - http://www.bohemiancoding.com/sketch -->
    <title>logo</title>
    <desc>Created with Sketch.</desc>
    <defs></defs>
    <g id="logo" stroke="none" stroke-width="1" fill="none" fill-rule="evenodd">
        <g id="LOGO" transform="translate(-32.000000, -22.000000)">
            <g id="logo" transform="translate(32.000000, 22.000000)">
                <path d="M118,48 L47,48 L47,0 L118,0 C119.050284,0 119.999509,0.963685302 120,2 L120,46 C119.999509,47.0363147 119.050284,48 118,48 L118,48 Z" id="Fill-1" fill="#F6F6F6"></path>
                <path d="M47.1575595,29.1054261 C47.4183353,29.6073391 47.7636026,30.0122087 48.1944043,30.3231652 C48.625206,30.6341217 49.1311112,30.8647304 49.7121198,31.0149913 C50.2931284,31.1652522 50.8949991,31.2403826 51.5156457,31.2403826 C51.9370595,31.2403826 52.3876802,31.2049043 52.8685509,31.1349913 C53.3494216,31.0650783 53.8000422,30.9294261 54.2204129,30.7290783 C54.6418267,30.5287304 54.9923095,30.2532522 55.2729043,29.9026435 C55.5534991,29.5520348 55.693275,29.1054261 55.693275,28.5649043 C55.693275,27.983687 55.5086457,27.5120348 55.1373009,27.1509913 C54.7669991,26.7899478 54.2809129,26.4894261 53.6800853,26.2494261 C53.0792578,26.0083826 52.3970681,25.7986435 51.6356026,25.6181217 C50.8741371,25.4376 50.1032836,25.2372522 49.3219991,25.0160348 C48.5198526,24.8167304 47.7385681,24.5704696 46.9771026,24.2803826 C46.2156371,23.9892522 45.5344905,23.6136 44.9336629,23.1523826 C44.3317922,22.6911652 43.845706,22.1151652 43.4764474,21.4233391 C43.1051026,20.731513 42.9194302,19.8946435 42.9194302,18.9127304 C42.9194302,17.8108174 43.1551716,16.8529043 43.6256112,16.0410783 C44.097094,15.2292522 44.712525,14.5530783 45.4750336,14.011513 C46.2364991,13.4709913 47.0981026,13.0702957 48.059844,12.8094261 C49.0215853,12.5496 49.9833267,12.4181217 50.9450681,12.4181217 C52.0664043,12.4181217 53.1439302,12.5433391 54.1755595,12.7937739 C55.2071888,13.0452522 56.1240767,13.4511652 56.9262233,14.011513 C57.7273267,14.5729043 58.3636198,15.2897739 58.8340595,16.1610783 C59.3055422,17.0334261 59.5412836,18.091513 59.5412836,19.3342957 L54.9724905,19.3342957 C54.9318095,18.6925565 54.796206,18.1614261 54.5667233,17.7398609 C54.3361974,17.3193391 54.0305681,16.9885565 53.6498353,16.7485565 C53.2691026,16.507513 52.8330853,16.3374261 52.3428267,16.2372522 C51.851525,16.1370783 51.3153698,16.0869913 50.7343612,16.0869913 C50.3536284,16.0869913 49.9728957,16.1266435 49.5921629,16.2069913 C49.2114302,16.2873391 48.8661629,16.4271652 48.5553181,16.627513 C48.2444733,16.8278609 47.9889129,17.0793391 47.7886371,17.3788174 C47.5883612,17.6803826 47.4882233,18.0612522 47.4882233,18.5214261 C47.4882233,18.9429913 47.5685422,19.2842087 47.7291802,19.5440348 C47.888775,19.8049043 48.2048353,20.0459478 48.675275,20.2661217 C49.1457147,20.4862957 49.7976543,20.7064696 50.6290078,20.927687 C51.4603612,21.1478609 52.5483181,21.4285565 53.8897491,21.7687304 C54.291344,21.8501217 54.8473181,21.9941217 55.5587147,22.2049043 C56.2690681,22.415687 56.9752491,22.751687 57.6772578,23.2118609 C58.3792664,23.6730783 58.9853095,24.2897739 59.4953871,25.0619478 C60.0065078,25.8330783 60.2620681,26.8202087 60.2620681,28.0233391 C60.2620681,29.0052522 60.0711802,29.9172522 59.6914905,30.7593391 C59.3107578,31.6014261 58.7443526,32.327687 57.9933181,32.9391652 C57.2412405,33.5506435 56.3097491,34.0264696 55.1978009,34.367687 C54.0858526,34.7078609 52.7976198,34.8789913 51.3362319,34.8789913 C50.1533526,34.8789913 49.0059388,34.7329043 47.8939905,34.4428174 C46.7820422,34.1527304 45.8004819,33.695687 44.9482664,33.0748174 C44.097094,32.4529043 43.4201198,31.6609043 42.9194302,30.6998609 C42.4187405,29.7367304 42.1788267,28.5941217 42.1986457,27.2709913 L46.7674388,27.2709913 C46.7674388,27.9930783 46.8967836,28.6045565 47.1575595,29.1054261" id="Fill-3" fill="#595757"></path>
                <path d="M63.0576897,34.3975304 L67.7766897,34.3975304 L67.7766897,12.9300522 L63.0576897,12.9300522 L63.0576897,34.3975304 Z" id="Fill-5" fill="#595757"></path>
                <path d="M80.8501138,30.4283478 C81.5312603,30.4283478 82.1925879,30.3187826 82.8340966,30.0975652 C83.4745621,29.8773913 84.0461828,29.5111304 84.5468724,29.0008696 C85.0475621,28.4885217 85.4491569,27.8227826 85.7495707,27.0005217 C86.0499845,26.1793043 86.2001914,25.1765217 86.2001914,23.9942609 C86.2001914,22.9121739 86.0948379,21.9344348 85.884131,21.062087 C85.6744672,20.1907826 85.3281569,19.4436522 84.8472862,18.8227826 C84.3674586,18.201913 83.7301224,17.7250435 82.93945,17.3942609 C82.1477345,17.0634783 81.1703466,16.8975652 80.0083293,16.8975652 L76.6422345,16.8975652 L76.6422345,30.4283478 L80.8501138,30.4283478 Z M81.1807776,12.9292174 C82.5639328,12.9292174 83.8511224,13.1504348 85.0433897,13.5907826 C86.2346138,14.0321739 87.2672862,14.6937391 88.1393207,15.5754783 C89.0103121,16.4582609 89.6914586,17.5591304 90.1827603,18.8822609 C90.673019,20.2053913 90.9191914,21.7591304 90.9191914,23.5424348 C90.9191914,25.1066087 90.7189155,26.5497391 90.3183638,27.8728696 C89.916769,29.196 89.311769,30.3386087 88.4991914,31.3006957 C87.6876569,32.2627826 86.6758466,33.0193043 85.4637603,33.5702609 C84.250631,34.1222609 82.8236655,34.3977391 81.1807776,34.3977391 L71.9232345,34.3977391 L71.9232345,12.9292174 L81.1807776,12.9292174 Z" id="Fill-7" fill="#595757"></path>
                <path d="M110.245395,12.9295304 L110.245395,16.8978783 L98.9141621,16.8978783 L98.9141621,21.4985739 L109.313903,21.4985739 L109.313903,25.1664 L98.9141621,25.1664 L98.9141621,30.4286609 L110.486352,30.4286609 L110.486352,34.3970087 L94.1951621,34.3970087 L94.1951621,12.9295304 L110.245395,12.9295304 Z" id="Fill-8" fill="#595757"></path>
                <path d="M47.2800198,48.000313 L2.06983017,48.000313 C0.93180431,48.000313 0.000312931035,47.0546307 0.000312931035,45.8992673 L0.000312931035,2.1013588 C0.000312931035,0.945995433 0.93180431,0.000313043478 2.06983017,0.000313043478 L47.2800198,0.000313043478 L47.2800198,48.000313 Z" id="Fill-9" fill="#C13B3B"></path>
                <path d="M9.76031897,34.3829217 L14.479319,34.3829217 L14.479319,12.9154435 L9.76031897,12.9154435 L9.76031897,34.3829217 Z" id="Fill-10" fill="#FEFEFE"></path>
                <path d="M24.1050776,12.9146087 L33.0622069,27.3166957 L33.1227069,27.3166957 L33.1227069,12.9146087 L37.54025,12.9146087 L37.54025,34.382087 L32.82125,34.382087 L23.8954138,20.0102609 L23.8349138,20.0102609 L23.8349138,34.382087 L19.4163276,34.382087 L19.4163276,12.9146087 L24.1050776,12.9146087 Z" id="Fill-11" fill="#FEFEFE"></path>
            </g>
        </g>
    </g>
</svg>