<?xml version="1.0" encoding="UTF-8" standalone="no"?>
<svg width="285px" height="79px" viewBox="0 0 285 79" version="1.1" xmlns="http://www.w3.org/2000/svg" xmlns:xlink="http://www.w3.org/1999/xlink">
    <!-- Generator: Sketch 3.7.1 (28215) - http://www.bohemiancoding.com/sketch -->
    <title>outside</title>
    <desc>Created with Sketch.</desc>
    <defs></defs>
    <g id="logo" stroke="none" stroke-width="1" fill="none" fill-rule="evenodd">
        <g id="404" transform="translate(-578.000000, -311.000000)">
            <g id="outside" transform="translate(578.000000, 311.000000)">
                <g id="logo">
                    <path d="M120.260116,79 L120.260116,0 L280.486579,0 C282.856767,0 284.998891,1.58606539 285,3.29166667 L285,75.7083333 C284.998891,77.4139346 282.856767,79 280.486579,79 L120.260116,79 Z" id="Fill-1" fill="#F6F6F6"></path>
                    <path d="M120.519679,47.9026804 C120.949281,48.7287457 121.518074,49.3950935 122.227776,49.9068761 C122.937478,50.4186587 123.770906,50.7982022 124.728059,51.0455065 C125.685212,51.2928109 126.676733,51.416463 127.699185,51.416463 C128.393422,51.416463 129.135774,51.3580717 129.92796,51.2430065 C130.720145,51.1279413 131.462497,50.9046804 132.155016,50.5749413 C132.849252,50.2452022 133.426637,49.7918109 133.888889,49.2147674 C134.35114,48.6377239 134.581407,47.9026804 134.581407,47.0130717 C134.581407,46.0564848 134.277249,45.2802239 133.665496,44.6860065 C133.055461,44.0917891 132.254683,43.5971804 131.26488,43.2021804 C130.275078,42.805463 129.151239,42.4602674 127.896802,42.1631587 C126.642365,41.86605 125.372461,41.5363109 124.085374,41.1722239 C122.763919,40.8442022 121.476832,40.4388978 120.222394,39.961463 C118.967957,39.4823109 117.845837,38.86405 116.856034,38.104963 C115.864513,37.3458761 115.063735,36.3978761 114.455419,35.2592457 C113.843666,34.1206152 113.53779,32.7432674 113.53779,31.1272022 C113.53779,29.313637 113.92615,27.7370717 114.701151,26.4009413 C115.477872,25.0648109 116.491732,23.9519413 117.747888,23.0606152 C119.002325,22.1710065 120.42173,21.5115283 122.006101,21.0821804 C123.590473,20.65455 125.174845,20.4381587 126.759216,20.4381587 C128.606504,20.4381587 130.381619,20.6442457 132.081124,21.0564196 C133.780629,21.4703109 135.291109,22.1383761 136.612564,23.0606152 C137.932301,23.9845717 138.98053,25.1644196 139.755532,26.5984413 C140.532252,28.0341804 140.920612,29.7756152 140.920612,31.8210283 L133.393987,31.8210283 C133.326969,30.7648326 133.103576,29.8906804 132.725527,29.1968543 C132.345759,28.5047457 131.842265,27.9603326 131.215047,27.5653326 C130.587828,27.1686152 129.869534,26.8886804 129.061882,26.7238109 C128.252512,26.5589413 127.369251,26.4765065 126.412098,26.4765065 C125.784879,26.4765065 125.157661,26.5417674 124.530442,26.6740065 C123.903223,26.8062457 123.33443,27.0363761 122.822345,27.3661152 C122.310259,27.6958543 121.88925,28.1097457 121.559315,28.602637 C121.229381,29.098963 121.064414,29.7258109 121.064414,30.4831804 C121.064414,31.1770065 121.196731,31.7385935 121.461366,32.1662239 C121.724283,32.5955717 122.24496,32.9922891 123.019962,33.3546587 C123.794963,33.7170283 124.868968,34.0793978 126.238539,34.4434848 C127.60811,34.8058543 129.400408,35.2678326 131.61028,35.8277022 C132.271867,35.9616587 133.187778,36.1986587 134.359732,36.5455717 C135.529968,36.8924848 136.69333,37.4454848 137.849818,38.2028543 C139.006306,38.9619413 140.004701,39.9769196 140.845002,41.2477891 C141.687021,42.5169413 142.108031,44.1415935 142.108031,46.1217457 C142.108031,47.7378109 141.793563,49.2388109 141.168062,50.6247457 C140.540844,52.0106804 139.607748,53.2059848 138.370495,54.2123761 C137.131523,55.2187674 135.596986,56.0018978 133.765163,56.5634848 C131.933341,57.1233543 129.811108,57.4050065 127.403619,57.4050065 C125.454945,57.4050065 123.564697,57.1645717 121.732875,56.687137 C119.901052,56.2097022 118.284031,55.4574848 116.880092,54.435637 C115.477872,53.4120717 114.362625,52.1085717 113.53779,50.5268543 C112.712954,48.9417022 112.31772,47.0611587 112.35037,44.8835065 L119.876995,44.8835065 C119.876995,46.0719413 120.090077,47.0783326 120.519679,47.9026804" id="Fill-3" fill="#595757"></path>
                    <polygon id="Fill-5" fill="#595757" points="146.713535 56.6126022 154.48761 56.6126022 154.48761 21.2807109 146.713535 21.2807109"></polygon>
                    <path d="M176.024754,50.0799891 C177.146874,50.0799891 178.236344,49.899663 179.293165,49.5355761 C180.348267,49.1732065 181.289954,48.5704022 182.11479,47.7305978 C182.939625,46.8873587 183.601212,45.791663 184.096114,44.4383587 C184.591015,43.0867717 184.838466,41.4363587 184.838466,39.4905543 C184.838466,37.7096196 184.664906,36.1004239 184.317788,34.6646848 C183.972388,33.230663 183.401877,32.0010109 182.609691,30.979163 C181.819224,29.9573152 180.769277,29.1724674 179.466724,28.6280543 C178.162453,28.0836413 176.552305,27.8105761 174.637999,27.8105761 L169.092698,27.8105761 L169.092698,50.0799891 L176.024754,50.0799891 Z M176.569489,21.279337 C178.848097,21.279337 180.968612,21.6434239 182.932752,22.368163 C184.895173,23.0946196 186.596396,24.1834457 188.032985,25.6346413 C189.467855,27.0875543 190.589975,28.8994022 191.399345,31.0770543 C192.206997,33.2547065 192.612541,35.8119022 192.612541,38.7469239 C192.612541,41.3212935 192.282606,43.6964457 191.622738,45.8740978 C190.961151,48.05175 189.964475,49.9322935 188.625836,51.5157283 C187.288915,53.099163 185.622059,54.3442717 183.62527,55.2510543 C181.626762,56.1595543 179.275981,56.6129457 176.569489,56.6129457 L161.318623,56.6129457 L161.318623,21.279337 L176.569489,21.279337 Z" id="Fill-7" fill="#595757"></path>
                    <polygon id="Fill-8" fill="#595757" points="224.450506 21.2798522 224.450506 27.8110913 205.783446 27.8110913 205.783446 35.3830696 222.915968 35.3830696 222.915968 41.4197 205.783446 41.4197 205.783446 50.0805043 224.847458 50.0805043 224.847458 56.6117435 198.009371 56.6117435 198.009371 21.2798522"></polygon>
                    <path d="M120.72142,79.0005152 L5.72530446,79.0005152 C2.83063504,79.0005152 0.46130434,77.4440796 0.46130434,75.5425441 L0.46130434,3.45848636 C0.46130434,1.55695082 2.83063504,0.000515217391 5.72530446,0.000515217391 L120.72142,0.000515217391 L120.72142,79.0005152 Z" id="Fill-9" fill="#9B9B9B"></path>
                </g>
                <path d="M29.0214764,26.8533542 C27.207759,26.8533542 25.640667,27.2192741 24.3201535,27.951125 C22.9996399,28.6829759 21.9257444,29.661414 21.0984347,30.8864687 C20.271125,32.1115235 19.6586069,33.5036103 19.2608618,35.0627708 C18.8631168,36.6219314 18.6642472,38.2128877 18.6642472,39.8356875 C18.6642472,41.4584873 18.8631168,43.0494436 19.2608618,44.6086042 C19.6586069,46.1677647 20.271125,47.5598515 21.0984347,48.7849062 C21.9257444,50.009961 22.9996399,50.9883991 24.3201535,51.72025 C25.640667,52.4521009 27.207759,52.8180208 29.0214764,52.8180208 C30.8351938,52.8180208 32.4022858,52.4521009 33.7227993,51.72025 C35.0433129,50.9883991 36.1172084,50.009961 36.9445181,48.7849062 C37.7718278,47.5598515 38.3843459,46.1677647 38.782091,44.6086042 C39.179836,43.0494436 39.3787056,41.4584873 39.3787056,39.8356875 C39.3787056,38.2128877 39.179836,36.6219314 38.782091,35.0627708 C38.3843459,33.5036103 37.7718278,32.1115235 36.9445181,30.8864687 C36.1172084,29.661414 35.0433129,28.6829759 33.7227993,27.951125 C32.4022858,27.2192741 30.8351938,26.8533542 29.0214764,26.8533542 L29.0214764,26.8533542 Z M29.0214764,21.9849792 C31.5670447,21.9849792 33.850067,22.4622661 35.8706118,23.4168542 C37.8911566,24.3714423 39.6014347,25.6601169 41.0014972,27.2829167 C42.4015598,28.9057164 43.4754553,30.7989545 44.223216,32.9626875 C44.9709767,35.1264205 45.3448514,37.4173976 45.3448514,39.8356875 C45.3448514,42.285797 44.9709767,44.5926836 44.223216,46.7564167 C43.4754553,48.9201497 42.4015598,50.8133877 41.0014972,52.4361875 C39.6014347,54.0589873 37.8911566,55.3397071 35.8706118,56.2783854 C33.850067,57.2170637 31.5670447,57.6863958 29.0214764,57.6863958 C26.4759081,57.6863958 24.1928858,57.2170637 22.172341,56.2783854 C20.1517962,55.3397071 18.4415181,54.0589873 17.0414556,52.4361875 C15.641393,50.8133877 14.5674975,48.9201497 13.8197368,46.7564167 C13.0719761,44.5926836 12.6981014,42.285797 12.6981014,39.8356875 C12.6981014,37.4173976 13.0719761,35.1264205 13.8197368,32.9626875 C14.5674975,30.7989545 15.641393,28.9057164 17.0414556,27.2829167 C18.4415181,25.6601169 20.1517962,24.3714423 22.172341,23.4168542 C24.1928858,22.4622661 26.4759081,21.9849792 29.0214764,21.9849792 L29.0214764,21.9849792 Z M50.4041431,22.796375 L56.3702889,22.796375 L56.3702889,42.6517083 C56.3702889,43.7972141 56.4259724,44.9586122 56.537341,46.1359375 C56.6487096,47.3132628 56.9669009,48.3712488 57.4919243,49.3099271 C58.0169478,50.2486054 58.8124259,51.0202192 59.8783826,51.6247917 C60.9443394,52.2293641 62.4477931,52.5316458 64.3887889,52.5316458 C66.3297847,52.5316458 67.8332384,52.2293641 68.8991951,51.6247917 C69.9651519,51.0202192 70.76063,50.2486054 71.2856535,49.3099271 C71.8106769,48.3712488 72.1288682,47.3132628 72.2402368,46.1359375 C72.3516054,44.9586122 72.4072889,43.7972141 72.4072889,42.6517083 L72.4072889,22.796375 L78.3734347,22.796375 L78.3734347,44.6086042 C78.3734347,46.8041568 78.0393339,48.7133044 77.3711222,50.3361042 C76.7029106,51.9589039 75.7562915,53.3191716 74.5312368,54.4169479 C73.3061821,55.5147242 71.8345475,56.3340667 70.1162889,56.875 C68.3980303,57.4159333 66.4888827,57.6863958 64.3887889,57.6863958 C62.2886951,57.6863958 60.3795475,57.4159333 58.6612889,56.875 C56.9430303,56.3340667 55.4713957,55.5147242 54.246341,54.4169479 C53.0212862,53.3191716 52.0746672,51.9589039 51.4064556,50.3361042 C50.7382439,48.7133044 50.4041431,46.8041568 50.4041431,44.6086042 L50.4041431,22.796375 Z M82.0008514,22.796375 L109.58831,22.796375 L109.58831,27.951125 L98.7537889,27.951125 L98.7537889,56.875 L92.7876431,56.875 L92.7876431,27.951125 L82.0008514,27.951125 L82.0008514,22.796375 Z" id="OUT" fill="#F6F6F6"></path>
                <path d="M237.367136,50.9088542 L243.762844,50.9088542 L243.762844,56.875 L237.367136,56.875 L237.367136,50.9088542 Z M237.605782,22.796375 L243.571928,22.796375 L243.571928,32.6285833 L241.996865,47.3768958 L239.180844,47.3768958 L237.605782,32.6285833 L237.605782,22.796375 Z M257.127011,50.9088542 L263.522719,50.9088542 L263.522719,56.875 L257.127011,56.875 L257.127011,50.9088542 Z M249.538073,33.6308958 C249.538073,31.8808176 249.800581,30.2898613 250.325605,28.8579792 C250.850628,27.426097 251.614287,26.2010606 252.616605,25.1828333 C253.618922,24.164606 254.828049,23.3770826 256.244021,22.8202396 C257.659994,22.2633965 259.242995,21.9849792 260.993073,21.9849792 C262.456775,21.9849792 263.817043,22.1997583 265.073917,22.6293229 C266.330791,23.0588876 267.428551,23.6793605 268.36723,24.4907604 C269.305908,25.3021603 270.045703,26.3124176 270.586636,27.5215625 C271.127569,28.7307074 271.398032,30.0989299 271.398032,31.6262708 C271.398032,32.739957 271.27871,33.7024855 271.040063,34.5138854 C270.801416,35.3252853 270.483225,36.0253061 270.08548,36.6139687 C269.687735,37.2026314 269.234312,37.727647 268.725198,38.1890312 C268.216085,38.6504155 267.706979,39.1038381 267.197865,39.5493125 C266.593293,40.0584262 266.036458,40.5516226 265.527344,41.0289167 C265.018231,41.5062107 264.572763,42.0391811 264.190928,42.6278437 C263.809092,43.2165064 263.514765,43.9085724 263.307938,44.7040625 C263.10111,45.4995526 262.997698,46.4700359 262.997698,47.6155417 L257.842948,47.6155417 C257.842948,46.2154791 257.914541,45.0302167 258.05773,44.0597187 C258.200918,43.0892208 258.431606,42.2380592 258.749803,41.5062083 C259.067999,40.7743575 259.457783,40.1300201 259.919167,39.5731771 C260.380551,39.016334 260.929431,38.4674541 261.565823,37.9265208 C262.074937,37.4810464 262.560179,37.0673977 263.021563,36.6855625 C263.482947,36.3037273 263.896596,35.8821238 264.262521,35.4207396 C264.628447,34.9593553 264.914819,34.4422945 265.121646,33.8695417 C265.328474,33.2967888 265.431886,32.6126776 265.431886,31.8171875 C265.431886,30.8625994 265.264835,30.0432569 264.93073,29.3591354 C264.596624,28.6750139 264.19093,28.126134 263.713636,27.7124792 C263.236342,27.2988243 262.727236,26.9965426 262.186303,26.805625 C261.645369,26.6147074 261.168082,26.51925 260.754428,26.51925 C258.781612,26.51925 257.325887,27.1635873 256.387209,28.4522813 C255.44853,29.7409752 254.979198,31.4671628 254.979198,33.6308958 L249.538073,33.6308958 Z" id="!?" fill="#595757"></path>
            </g>
        </g>
    </g>
</svg>