<?xml version="1.0" encoding="UTF-8" standalone="no"?>
<svg width="48px" height="48px" viewBox="0 0 48 48" version="1.1" xmlns="http://www.w3.org/2000/svg" xmlns:xlink="http://www.w3.org/1999/xlink">
    <!-- Generator: Sketch 3.6.1 (26313) - http://www.bohemiancoding.com/sketch -->
    <title>rss</title>
    <desc>Created with Sketch.</desc>
    <defs></defs>
    <g id="Page-1" stroke="none" stroke-width="1" fill="none" fill-rule="evenodd">
        <g id="Artboard-1" transform="translate(-235.000000, -12.000000)" fill="#000000">
            <path d="M251.001053,28 L251.001053,30.4915789 C258.46,30.4915789 264.506316,36.54 264.506316,43.9989474 L267,43.9989474 C267,35.1631579 259.836842,28 251.001053,28 L251.001053,28 Z M251.001053,32.9863158 L251.001053,35.48 C255.705263,35.48 259.52,39.2936842 259.52,44 L262.012632,44 C262.012632,37.9178947 257.082105,32.9863158 251.001053,32.9863158 L251.001053,32.9863158 Z M253.389474,39.22 C252.069474,39.22 251,40.2915789 251,41.6105263 C251,42.9294737 252.069474,44 253.389474,44 C254.709474,44 255.777895,42.9305263 255.777895,41.6105263 C255.777895,40.2905263 254.709474,39.22 253.389474,39.22 L253.389474,39.22 Z" id="Shape"></path>
        </g>
    </g>
</svg>