<?xml version="1.0" encoding="UTF-8" standalone="no"?>
<svg width="48px" height="48px" viewBox="0 0 48 48" version="1.1" xmlns="http://www.w3.org/2000/svg" xmlns:xlink="http://www.w3.org/1999/xlink">
    <!-- Generator: Sketch 3.6.1 (26313) - http://www.bohemiancoding.com/sketch -->
    <title>search</title>
    <desc>Created with Sketch.</desc>
    <defs></defs>
    <g id="Page-1" stroke="none" stroke-width="1" fill="none" fill-rule="evenodd">
        <g id="Artboard-1" transform="translate(-12.000000, -12.000000)" fill="#000000">
            <g id="search" transform="translate(36.495689, 36.495689) rotate(-45.000000) translate(-36.495689, -36.495689) translate(27.995689, 24.495689)">
                <path d="M8.14007421,16.1722798 C12.6112419,16.1722798 16.2467532,12.5847732 16.2467532,8.14532738 C16.2467532,3.70588157 12.6112419,0.118375 8.14007421,0.118375 C3.66890655,0.118375 0.0333951763,3.70588157 0.0333951763,8.14532738 C0.0333951763,12.5847732 3.66890655,16.1722798 8.14007421,16.1722798 L8.14007421,16.1722798 Z M8.14007421,14.0415298 C4.8188012,14.0415298 2.13729128,11.3954276 2.13729128,8.14532738 C2.13729128,4.89522715 4.8188012,2.249125 8.14007421,2.249125 C11.4613472,2.249125 14.1428571,4.89522715 14.1428571,8.14532738 C14.1428571,11.3954276 11.4613472,14.0415298 8.14007421,14.0415298 L8.14007421,14.0415298 Z" id="Shape"></path>
                <rect id="Rectangle-28" x="6.51205937" y="14.0358929" width="3.25602968" height="9.63910714" rx="17.82"></rect>
            </g>
        </g>
    </g>
</svg>