<?xml version="1.0" encoding="UTF-8" standalone="no"?>
<svg width="293px" height="50px" viewBox="0 0 293 50" version="1.1" xmlns="http://www.w3.org/2000/svg" xmlns:xlink="http://www.w3.org/1999/xlink">
    <!-- Generator: Sketch 3.8.1 (29687) - http://www.bohemiancoding.com/sketch -->
    <title>subscribe-title</title>
    <desc>Created with Sketch.</desc>
    <defs></defs>
    <g id="subscribe" stroke="none" stroke-width="1" fill="none" fill-rule="evenodd">
        <g id="index-memu" transform="translate(-50.000000, -439.000000)">
            <g id="Group-5" transform="translate(50.000000, 439.000000)">
                <g id="logo" transform="translate(163.000000, 0.000000)">
                    <rect id="Rectangle-1-Copy" fill="#F6F6F6" x="24.5081967" y="0" width="105.491803" height="50" rx="2"></rect>
                    <text id="SIDE" opacity="0.896047108" font-family="HelveticaNeue-Bold, Helvetica Neue" font-size="31.9148936" font-weight="bold" fill="#3F3F3F">
                        <tspan x="44.2213115" y="37.787234">SIDE</tspan>
                    </text>
                    <rect id="Rectangle-1" fill="#C13B3B" x="0" y="0" width="50.0819672" height="50" rx="2"></rect>
                    <text id="IN" font-family="HelveticaNeue-Bold, Helvetica Neue" font-size="31.9148936" font-weight="bold" fill="#FFFFFF">
                        <tspan x="9.12295082" y="37.787234">IN</tspan>
                    </text>
                </g>
                <path d="M5.632,30.416 L0.768,30.416 C0.74666656,31.824007 1.002664,33.0399949 1.536,34.064 C2.069336,35.0880051 2.7893288,35.9306634 3.696,36.592 C4.6026712,37.2533366 5.64799408,37.7386651 6.832,38.048 C8.01600592,38.3573349 9.23732704,38.512 10.496,38.512 C12.0533411,38.512 13.4239941,38.3306685 14.608,37.968 C15.7920059,37.6053315 16.783996,37.0986699 17.584,36.448 C18.384004,35.7973301 18.9866646,35.0240045 19.392,34.128 C19.7973354,33.2319955 20,32.2613386 20,31.216 C20,29.9359936 19.7280027,28.8853374 19.184,28.064 C18.6399973,27.2426626 17.9946704,26.5866691 17.248,26.096 C16.5013296,25.6053309 15.7493371,25.2480011 14.992,25.024 C14.2346629,24.7999989 13.6426688,24.6453338 13.216,24.56 C11.7866595,24.1973315 10.6293378,23.8986678 9.744,23.664 C8.85866224,23.4293322 8.16533584,23.1946678 7.664,22.96 C7.16266416,22.7253322 6.82666752,22.4693347 6.656,22.192 C6.48533248,21.9146653 6.4,21.5520022 6.4,21.104 C6.4,20.6133309 6.5066656,20.2080016 6.72,19.888 C6.9333344,19.5679984 7.20533168,19.3013344 7.536,19.088 C7.86666832,18.8746656 8.23466464,18.7253338 8.64,18.64 C9.04533536,18.5546662 9.45066464,18.512 9.856,18.512 C10.4746698,18.512 11.0453307,18.5653328 11.568,18.672 C12.0906693,18.7786672 12.5546646,18.9599987 12.96,19.216 C13.3653354,19.4720013 13.6906654,19.8239978 13.936,20.272 C14.1813346,20.7200022 14.3253331,21.2853299 14.368,21.968 L19.232,21.968 C19.232,20.6453267 18.9813358,19.5200046 18.48,18.592 C17.9786642,17.6639954 17.3013376,16.9013363 16.448,16.304 C15.5946624,15.7066637 14.6186722,15.274668 13.52,15.008 C12.4213278,14.741332 11.2746726,14.608 10.08,14.608 C9.05599488,14.608 8.03200512,14.7466653 7.008,15.024 C5.98399488,15.3013347 5.06667072,15.7279971 4.256,16.304 C3.44532928,16.8800029 2.78933584,17.5999957 2.288,18.464 C1.78666416,19.3280043 1.536,20.3466608 1.536,21.52 C1.536,22.5653386 1.73333136,23.4559963 2.128,24.192 C2.52266864,24.9280037 3.0399968,25.5413309 3.68,26.032 C4.3200032,26.5226691 5.04532928,26.9226651 5.856,27.232 C6.66667072,27.5413349 7.4986624,27.8026656 8.352,28.016 C9.18400416,28.2506678 10.0053293,28.463999 10.816,28.656 C11.6266707,28.848001 12.3519968,29.0719987 12.992,29.328 C13.6320032,29.5840013 14.1493314,29.9039981 14.544,30.288 C14.9386686,30.6720019 15.136,31.1733302 15.136,31.792 C15.136,32.3680029 14.9866682,32.8426648 14.688,33.216 C14.3893318,33.5893352 14.0160022,33.8826656 13.568,34.096 C13.1199978,34.3093344 12.6400026,34.453333 12.128,34.528 C11.6159974,34.602667 11.1360022,34.64 10.688,34.64 C10.0266634,34.64 9.38666976,34.5600008 8.768,34.4 C8.14933024,34.2399992 7.61066896,33.9946683 7.152,33.664 C6.69333104,33.3333317 6.32533472,32.901336 6.048,32.368 C5.77066528,31.834664 5.632,31.1840038 5.632,30.416 L5.632,30.416 Z M38.016,38 L38.016,21.456 L33.472,21.456 L33.472,30.128 C33.472,31.8133418 33.1946694,33.0239963 32.64,33.76 C32.0853306,34.4960037 31.1893395,34.864 29.952,34.864 C28.8639946,34.864 28.1066688,34.5280034 27.68,33.856 C27.2533312,33.1839966 27.04,32.1653402 27.04,30.8 L27.04,21.456 L22.496,21.456 L22.496,31.632 C22.496,32.6560051 22.5866658,33.5893291 22.768,34.432 C22.9493342,35.2746709 23.2639978,35.9893304 23.712,36.576 C24.1600022,37.1626696 24.7733294,37.6159984 25.552,37.936 C26.3306706,38.2560016 27.3279939,38.416 28.544,38.416 C29.5040048,38.416 30.4426621,38.2026688 31.36,37.776 C32.2773379,37.3493312 33.0239971,36.6560048 33.6,35.696 L33.696,35.696 L33.696,38 L38.016,38 Z M53.6,29.744 C53.6,30.4266701 53.5253341,31.0879968 53.376,31.728 C53.2266659,32.3680032 52.9920016,32.9333309 52.672,33.424 C52.3519984,33.9146691 51.9520024,34.3039986 51.472,34.592 C50.9919976,34.8800014 50.4106701,35.024 49.728,35.024 C49.0666634,35.024 48.4906691,34.8800014 48,34.592 C47.5093309,34.3039986 47.1040016,33.9146691 46.784,33.424 C46.4639984,32.9333309 46.2293341,32.3680032 46.08,31.728 C45.9306659,31.0879968 45.856,30.4266701 45.856,29.744 C45.856,29.0399965 45.9306659,28.3680032 46.08,27.728 C46.2293341,27.0879968 46.4639984,26.5226691 46.784,26.032 C47.1040016,25.5413309 47.5093309,25.1520014 48,24.864 C48.4906691,24.5759986 49.0666634,24.432 49.728,24.432 C50.4106701,24.432 50.9919976,24.5759986 51.472,24.864 C51.9520024,25.1520014 52.3519984,25.5413309 52.672,26.032 C52.9920016,26.5226691 53.2266659,27.0879968 53.376,27.728 C53.5253341,28.3680032 53.6,29.0399965 53.6,29.744 L53.6,29.744 Z M41.472,15.152 L41.472,38 L45.792,38 L45.792,35.888 L45.856,35.888 C46.3466691,36.8053379 47.0719952,37.4559981 48.032,37.84 C48.9920048,38.2240019 50.0799939,38.416 51.296,38.416 C52.1280042,38.416 52.9493293,38.245335 53.76,37.904 C54.5706707,37.562665 55.3013301,37.0400035 55.952,36.336 C56.6026699,35.6319965 57.1306646,34.7306722 57.536,33.632 C57.9413354,32.5333278 58.144,31.2266742 58.144,29.712 C58.144,28.1973258 57.9413354,26.8906722 57.536,25.792 C57.1306646,24.6933278 56.6026699,23.7920035 55.952,23.088 C55.3013301,22.3839965 54.5706707,21.861335 53.76,21.52 C52.9493293,21.178665 52.1280042,21.008 51.296,21.008 C50.2719949,21.008 49.2853381,21.2053314 48.336,21.6 C47.3866619,21.9946686 46.6346694,22.6186624 46.08,23.472 L46.016,23.472 L46.016,15.152 L41.472,15.152 Z M64.544,32.624 L60.224,32.624 C60.2666669,33.7333389 60.517331,34.6559963 60.976,35.392 C61.434669,36.1280037 62.0213298,36.7199978 62.736,37.168 C63.4506702,37.6160022 64.2666621,37.935999 65.184,38.128 C66.1013379,38.320001 67.0399952,38.416 68,38.416 C68.9386714,38.416 69.8613288,38.3253342 70.768,38.144 C71.6746712,37.9626658 72.4799965,37.6480022 73.184,37.2 C73.8880035,36.7519978 74.4586645,36.1600037 74.896,35.424 C75.3333355,34.6879963 75.552,33.7760054 75.552,32.688 C75.552,31.9199962 75.4026682,31.2746693 75.104,30.752 C74.8053318,30.2293307 74.4106691,29.7920018 73.92,29.44 C73.4293309,29.0879982 72.8693365,28.8053344 72.24,28.592 C71.6106635,28.3786656 70.9653366,28.1973341 70.304,28.048 C69.6639968,27.8986659 69.0346698,27.7600006 68.416,27.632 C67.7973302,27.5039994 67.2480024,27.3600008 66.768,27.2 C66.2879976,27.0399992 65.8986682,26.8320013 65.6,26.576 C65.3013318,26.3199987 65.152,25.9893354 65.152,25.584 C65.152,25.242665 65.2373325,24.9706677 65.408,24.768 C65.5786675,24.5653323 65.7866654,24.4106672 66.032,24.304 C66.2773346,24.1973328 66.5493318,24.1280002 66.848,24.096 C67.1466682,24.0639998 67.4239987,24.048 67.68,24.048 C68.4906707,24.048 69.1946637,24.2026651 69.792,24.512 C70.3893363,24.8213349 70.7199997,25.413329 70.784,26.288 L75.104,26.288 C75.0186662,25.2639949 74.7573355,24.4160034 74.32,23.744 C73.8826645,23.0719966 73.3333366,22.5333354 72.672,22.128 C72.0106634,21.7226646 71.2586709,21.4346675 70.416,21.264 C69.5733291,21.0933325 68.7040045,21.008 67.808,21.008 C66.9119955,21.008 66.0373376,21.0879992 65.184,21.248 C64.3306624,21.4080008 63.5626701,21.6853314 62.88,22.08 C62.1973299,22.4746686 61.6480021,23.0133299 61.232,23.696 C60.8159979,24.3786701 60.608,25.253328 60.608,26.32 C60.608,27.045337 60.7573318,27.6586642 61.056,28.16 C61.3546682,28.6613358 61.7493309,29.0773317 62.24,29.408 C62.7306691,29.7386683 63.2906635,30.0053323 63.92,30.208 C64.5493365,30.4106677 65.1946634,30.5866659 65.856,30.736 C67.4773414,31.077335 68.7413288,31.418665 69.648,31.76 C70.5546712,32.101335 71.008,32.6133299 71.008,33.296 C71.008,33.7013354 70.912001,34.037332 70.72,34.304 C70.527999,34.570668 70.2880014,34.7839992 70,34.944 C69.7119986,35.1040008 69.3920018,35.221333 69.04,35.296 C68.6879982,35.370667 68.3520016,35.408 68.032,35.408 C67.5839978,35.408 67.1520021,35.3546672 66.736,35.248 C66.3199979,35.1413328 65.9520016,34.9760011 65.632,34.752 C65.3119984,34.5279989 65.0506677,34.2400018 64.848,33.888 C64.6453323,33.5359982 64.544,33.1146691 64.544,32.624 L64.544,32.624 Z M89.472,27.28 L93.92,27.28 C93.8559997,26.213328 93.6000022,25.2906706 93.152,24.512 C92.7039978,23.7333294 92.1226702,23.0826693 91.408,22.56 C90.6933298,22.0373307 89.8826712,21.6480013 88.976,21.392 C88.0693288,21.1359987 87.1253382,21.008 86.144,21.008 C84.7999933,21.008 83.6053386,21.2319978 82.56,21.68 C81.5146614,22.1280022 80.629337,22.751996 79.904,23.552 C79.178663,24.352004 78.6293352,25.3013278 78.256,26.4 C77.8826648,27.4986722 77.696,28.6879936 77.696,29.968 C77.696,31.2053395 77.8986646,32.3413282 78.304,33.376 C78.7093354,34.4106718 79.274663,35.3013296 80,36.048 C80.725337,36.7946704 81.6053282,37.3759979 82.64,37.792 C83.6746718,38.2080021 84.8106605,38.416 86.048,38.416 C88.2453443,38.416 90.047993,37.8400058 91.456,36.688 C92.864007,35.5359942 93.7173318,33.8613443 94.016,31.664 L89.632,31.664 C89.4826659,32.6880051 89.1146696,33.503997 88.528,34.112 C87.9413304,34.720003 87.1040054,35.024 86.016,35.024 C85.3119965,35.024 84.7146691,34.8640016 84.224,34.544 C83.7333309,34.2239984 83.3440014,33.8133358 83.056,33.312 C82.7679986,32.8106642 82.5600006,32.2506698 82.432,31.632 C82.3039994,31.0133302 82.24,30.4053363 82.24,29.808 C82.24,29.1893302 82.3039994,28.5653365 82.432,27.936 C82.5600006,27.3066635 82.7786651,26.7306693 83.088,26.208 C83.3973349,25.6853307 83.7973309,25.2586683 84.288,24.928 C84.7786691,24.5973317 85.386663,24.432 86.112,24.432 C88.053343,24.432 89.1733318,25.3813238 89.472,27.28 L89.472,27.28 Z M96.576,21.456 L96.576,38 L101.12,38 L101.12,30.544 C101.12,29.7973296 101.194666,29.1040032 101.344,28.464 C101.493334,27.8239968 101.743998,27.2640024 102.096,26.784 C102.448002,26.3039976 102.911997,25.9253347 103.488,25.648 C104.064003,25.3706653 104.767996,25.232 105.6,25.232 C105.877335,25.232 106.165332,25.2479998 106.464,25.28 C106.762668,25.3120002 107.018666,25.3493331 107.232,25.392 L107.232,21.168 C106.869332,21.0613328 106.538668,21.008 106.24,21.008 C105.663997,21.008 105.109336,21.0933325 104.576,21.264 C104.042664,21.4346675 103.541336,21.6746651 103.072,21.984 C102.602664,22.2933349 102.186668,22.6666645 101.824,23.104 C101.461332,23.5413355 101.173334,24.0159974 100.96,24.528 L100.896,24.528 L100.896,21.456 L96.576,21.456 Z M113.696,18.896 L113.696,15.152 L109.152,15.152 L109.152,18.896 L113.696,18.896 Z M109.152,21.456 L109.152,38 L113.696,38 L113.696,21.456 L109.152,21.456 Z M129.408,29.744 C129.408,30.4266701 129.333334,31.0879968 129.184,31.728 C129.034666,32.3680032 128.800002,32.9333309 128.48,33.424 C128.159998,33.9146691 127.760002,34.3039986 127.28,34.592 C126.799998,34.8800014 126.21867,35.024 125.536,35.024 C124.874663,35.024 124.298669,34.8800014 123.808,34.592 C123.317331,34.3039986 122.912002,33.9146691 122.592,33.424 C122.271998,32.9333309 122.037334,32.3680032 121.888,31.728 C121.738666,31.0879968 121.664,30.4266701 121.664,29.744 C121.664,29.0399965 121.738666,28.3680032 121.888,27.728 C122.037334,27.0879968 122.271998,26.5226691 122.592,26.032 C122.912002,25.5413309 123.317331,25.1520014 123.808,24.864 C124.298669,24.5759986 124.874663,24.432 125.536,24.432 C126.21867,24.432 126.799998,24.5759986 127.28,24.864 C127.760002,25.1520014 128.159998,25.5413309 128.48,26.032 C128.800002,26.5226691 129.034666,27.0879968 129.184,27.728 C129.333334,28.3680032 129.408,29.0399965 129.408,29.744 L129.408,29.744 Z M117.28,15.152 L117.28,38 L121.6,38 L121.6,35.888 L121.664,35.888 C122.154669,36.8053379 122.879995,37.4559981 123.84,37.84 C124.800005,38.2240019 125.887994,38.416 127.104,38.416 C127.936004,38.416 128.757329,38.245335 129.568,37.904 C130.378671,37.562665 131.10933,37.0400035 131.76,36.336 C132.41067,35.6319965 132.938665,34.7306722 133.344,33.632 C133.749335,32.5333278 133.952,31.2266742 133.952,29.712 C133.952,28.1973258 133.749335,26.8906722 133.344,25.792 C132.938665,24.6933278 132.41067,23.7920035 131.76,23.088 C131.10933,22.3839965 130.378671,21.861335 129.568,21.52 C128.757329,21.178665 127.936004,21.008 127.104,21.008 C126.079995,21.008 125.093338,21.2053314 124.144,21.6 C123.194662,21.9946686 122.442669,22.6186624 121.888,23.472 L121.824,23.472 L121.824,15.152 L117.28,15.152 Z M147.968,27.952 L140.576,27.952 C140.597333,27.6319984 140.666666,27.2693354 140.784,26.864 C140.901334,26.4586646 141.103999,26.0746685 141.392,25.712 C141.680001,25.3493315 142.063998,25.0453346 142.544,24.8 C143.024002,24.5546654 143.626663,24.432 144.352,24.432 C145.461339,24.432 146.287997,24.7306637 146.832,25.328 C147.376003,25.9253363 147.754666,26.7999942 147.968,27.952 L147.968,27.952 Z M140.576,30.832 L152.512,30.832 C152.597334,29.5519936 152.490668,28.3253392 152.192,27.152 C151.893332,25.9786608 151.408003,24.9333379 150.736,24.016 C150.063997,23.0986621 149.205339,22.3680027 148.16,21.824 C147.114661,21.2799973 145.888007,21.008 144.48,21.008 C143.221327,21.008 142.074672,21.2319978 141.04,21.68 C140.005328,22.1280022 139.11467,22.7413294 138.368,23.52 C137.62133,24.2986706 137.045335,25.221328 136.64,26.288 C136.234665,27.354672 136.032,28.5066605 136.032,29.744 C136.032,31.0240064 136.229331,32.197328 136.624,33.264 C137.018669,34.330672 137.578663,35.2479962 138.304,36.016 C139.029337,36.7840038 139.914661,37.3759979 140.96,37.792 C142.005339,38.2080021 143.17866,38.416 144.48,38.416 C146.357343,38.416 147.957327,37.9893376 149.28,37.136 C150.602673,36.2826624 151.583997,34.8640099 152.224,32.88 L148.224,32.88 C148.074666,33.3920026 147.669337,33.877331 147.008,34.336 C146.346663,34.794669 145.557338,35.024 144.64,35.024 C143.359994,35.024 142.37867,34.6933366 141.696,34.032 C141.01333,33.3706634 140.64,32.3040074 140.576,30.832 L140.576,30.832 Z" id="Subscribe" fill="#535353"></path>
            </g>
        </g>
    </g>
</svg>