<?xml version="1.0" encoding="UTF-8" standalone="no"?>
<svg width="282px" height="50px" viewBox="0 0 282 50" version="1.1" xmlns="http://www.w3.org/2000/svg" xmlns:xlink="http://www.w3.org/1999/xlink">
    <!-- Generator: Sketch 3.8.1 (29687) - http://www.bohemiancoding.com/sketch -->
    <title>subscribe-title</title>
    <desc>Created with Sketch.</desc>
    <defs></defs>
    <g id="subscribe" stroke="none" stroke-width="1" fill="none" fill-rule="evenodd">
        <g id="index-memu" transform="translate(-400.000000, -439.000000)">
            <g id="Group-8" transform="translate(400.000000, 439.000000)">
                <g id="Group-7" transform="translate(159.000000, 0.000000)">
                    <path d="M120.95,49.5238095 L48.175,49.5238095 L48.175,0 L120.95,0 C122.026542,0 122.999496,0.994278486 123,2.06349206 L123,47.4603175 C122.999496,48.529531 122.026542,49.5238095 120.95,49.5238095 L120.95,49.5238095 Z" id="Fill-1" fill="#F6F6F6"></path>
                    <path d="M48.3364985,30.0294079 C48.6037937,30.5472547 48.9576927,30.9649772 49.3992644,31.2858054 C49.8408362,31.6066335 50.359389,31.8445631 50.9549228,31.9995942 C51.5504567,32.1546253 52.1673741,32.2321408 52.8035368,32.2321408 C53.235486,32.2321408 53.6973722,32.1955362 54.1902646,32.1234037 C54.6831571,32.0512712 55.1450433,31.9113126 55.5759233,31.7046046 C56.0078724,31.4978965 56.3671172,31.2136729 56.6547269,30.8519337 C56.9423366,30.4901946 57.0856069,30.0294079 57.0856069,29.4717267 C57.0856069,28.872058 56.8963618,28.3854327 56.5157334,28.0129275 C56.1361741,27.6404224 55.6379358,27.3303602 55.0220875,27.0827412 C54.4062392,26.8340455 53.7069948,26.617648 52.9264927,26.4313954 C52.1459905,26.2451429 51.3558657,26.0384348 50.5550491,25.8101946 C49.7328489,25.6045631 48.9320323,25.3504845 48.1515302,25.0511884 C47.371028,24.7508157 46.6728528,24.3632381 46.0570045,23.8873789 C45.440087,23.4115197 44.9418487,22.817234 44.5633586,22.1034451 C44.1827302,21.3896563 43.9924159,20.5262195 43.9924159,19.5131346 C43.9924159,18.3762402 44.2340508,17.3879172 44.7162515,16.5503188 C45.1995213,15.7127205 45.8303381,15.0150807 46.6119095,14.456323 C47.3924116,13.8986418 48.2755552,13.4852257 49.2613401,13.2160745 C50.247125,12.948 51.2329099,12.8123478 52.2186948,12.8123478 C53.3680644,12.8123478 54.4725284,12.9415404 55.5299485,13.1999255 C56.5873685,13.4593872 57.5271786,13.8781863 58.3493789,14.456323 C59.1705099,15.0355362 59.8227103,15.7751636 60.304911,16.6741284 C60.7881808,17.5741698 61.0298157,18.6658468 61.0298157,19.9480828 L56.3468028,19.9480828 C56.3051047,19.285971 56.1661112,18.7379793 55.9308914,18.3030311 C55.6946023,17.8691594 55.3813323,17.5278758 54.9910812,17.2802567 C54.6008302,17.0315611 54.1539125,16.8560745 53.6513974,16.7527205 C53.1478131,16.6493665 52.5982541,16.5976894 52.0027202,16.5976894 C51.6124692,16.5976894 51.2222181,16.6386004 50.831967,16.721499 C50.4417159,16.8043975 50.087817,16.9486625 49.7692011,17.1553706 C49.4505851,17.3620787 49.1886358,17.6215404 48.983353,17.9305259 C48.7780702,18.2416646 48.6754289,18.6346253 48.6754289,19.1094079 C48.6754289,19.5443561 48.7577558,19.8964058 48.9224097,20.1644803 C49.0859944,20.4336315 49.4099562,20.6823271 49.8921569,20.9094907 C50.3743575,21.1366542 51.0425957,21.3638178 51.894733,21.592058 C52.7468702,21.8192215 53.8620261,22.1088282 55.2369929,22.4598012 C55.6486276,22.5437764 56.2185011,22.6923478 56.9476825,22.9098219 C57.6757948,23.1272961 58.3996304,23.4739627 59.1191892,23.9487453 C59.838748,24.4246046 60.4599422,25.0608778 60.9827717,25.8575652 C61.5066705,26.653176 61.7686198,27.6716439 61.7686198,28.9129689 C61.7686198,29.9260538 61.5729597,30.8670062 61.1837778,31.7358261 C60.7935267,32.604646 60.2129614,33.3539627 59.4431511,33.984853 C58.6722715,34.6157433 57.7174929,35.1066749 56.5777459,35.4587246 C55.4379989,35.8096977 54.1175603,35.9862609 52.6196377,35.9862609 C51.4071864,35.9862609 50.2310873,35.8355362 49.0913403,35.5362402 C47.9515933,35.2369441 46.9454939,34.7653913 46.071973,34.1248116 C45.1995213,33.4831553 44.5056228,32.6660124 43.9924159,31.6744596 C43.479209,30.6807536 43.2332974,29.5018716 43.2536118,28.1367371 L47.9366248,28.1367371 C47.9366248,28.8817474 48.0692032,29.5126377 48.3364985,30.0294079" id="Fill-3" fill="#595757"></path>
                    <polygon id="Fill-5" fill="#595757" points="64.634132 35.9826656 69.1315919 35.982666 69.1315919 13.0718994 64.634132 13.0718994"></polygon>
                    <path d="M82.8713666,31.3943271 C83.5695419,31.3943271 84.2474026,31.2812836 84.904949,31.0530435 C85.5614261,30.8258799 86.1473373,30.4479917 86.6605442,29.9215321 C87.1737511,29.3929193 87.5853858,28.7060455 87.89331,27.8576812 C88.2012341,27.0103934 88.3551962,25.9757764 88.3551962,24.7559834 C88.3551962,23.6395445 88.2472089,22.630766 88.0312343,21.7307246 C87.8163289,20.8317598 87.4613608,20.060911 86.9684684,19.4203313 C86.4766451,18.7797516 85.8233755,18.2877433 85.0129362,17.9464596 C84.2014278,17.605176 83.1996052,17.4339959 82.0085375,17.4339959 L78.5582903,17.4339959 L78.5582903,31.3943271 L82.8713666,31.3943271 Z M83.210297,13.3396687 C84.6280311,13.3396687 85.9474005,13.5679089 87.1694744,14.022236 C88.3904791,14.4776398 89.4489684,15.160207 90.3428037,16.0699379 C91.2355699,16.9807453 91.9337451,18.1165631 92.4373294,19.4816977 C92.9398444,20.8468323 93.1921712,22.4498965 93.1921712,24.2898137 C93.1921712,25.9036439 92.9868884,27.392588 92.5763229,28.7577226 C92.1646882,30.1228571 91.5445632,31.3017391 90.7116712,32.2943685 C89.8798483,33.2869979 88.8427427,34.0675362 87.6003544,34.6359834 C86.3568968,35.2055072 84.8942567,35.9438481 83.2102966,35.9438481 L73.7213149,35.9438481 L73.7213153,13.3396687 L83.210297,13.3396687 Z" id="Fill-7" fill="#595757"></path>
                    <polygon id="Fill-8" fill="#595757" points="113.00153 13.3399917 113.00153 17.4343188 101.387016 17.4343188 101.387016 22.1810683 112.046751 22.1810683 112.046751 25.9653333 101.387016 25.9653333 101.387016 31.3946501 113.248511 31.3946501 113.248511 36.0021965 96.5500419 36.0021965 96.5500411 13.3399917"></polygon>
                    <path d="M47.8854983,49.0534655 L2.12157589,49.0534655 C0.955099379,49.0534655 0.000320715203,48.0777615 0.000320715203,46.8857199 L0.00032075431,2.1680686 C0.00032075431,0.976027034 0.955099418,0.000322981366 2.12157593,0.000322981366 L47.8854984,0.000322981366 L47.8854983,49.0534655 Z" id="Fill-9" fill="#C13B3B"></path>
                    <polygon id="Fill-10" fill="#FEFEFE" points="10.0043269 35.4744431 14.8413019 35.4744431 14.8413019 13.3254576 10.0043269 13.3254576"></polygon>
                    <polygon id="Fill-11" fill="#FEFEFE" points="24.7077045 13.3245963 33.8887621 28.1838923 33.9507746 28.1838923 33.9507746 13.3245963 38.4787562 13.3245963 38.4787562 35.4735818 33.6417812 35.4735818 24.4927991 20.6455072 24.4307866 20.6455072 24.4307866 35.4735818 19.9017358 35.4735818 19.9017358 13.3245963"></polygon>
                </g>
                <path d="M5.456,27.653 L0.744,27.653 C0.72333323,29.0170068 0.97133075,30.194995 1.488,31.187 C2.00466925,32.179005 2.70216228,32.9953301 3.5805,33.636 C4.45883773,34.2766699 5.47149427,34.7468318 6.6185,35.0465 C7.76550574,35.3461682 8.94866057,35.496 10.168,35.496 C11.6766742,35.496 13.0044943,35.3203351 14.1515,34.969 C15.2985057,34.6176649 16.2594961,34.1268365 17.0345,33.4965 C17.8095039,32.8661635 18.3933314,32.1170043 18.786,31.249 C19.1786686,30.3809957 19.375,29.4406717 19.375,28.428 C19.375,27.1879938 19.1115026,26.1701706 18.5845,25.3745 C18.0574974,24.5788294 17.432337,23.9433357 16.709,23.468 C15.9856631,22.9926643 15.2571703,22.6465011 14.5235,22.4295 C13.7898297,22.2124989 13.2163354,22.0626671 12.803,21.98 C11.4183264,21.6286649 10.297171,21.3393345 9.4395,21.112 C8.58182905,20.8846655 7.9101691,20.6573345 7.4245,20.43 C6.93883091,20.2026655 6.61333416,19.954668 6.448,19.686 C6.28266584,19.417332 6.2,19.0660022 6.2,18.632 C6.2,18.1566643 6.3033323,17.7640015 6.51,17.454 C6.7166677,17.1439984 6.98016507,16.8856677 7.3005,16.679 C7.62083494,16.4723323 7.97733137,16.3276671 8.37,16.245 C8.76266863,16.1623329 9.15533137,16.121 9.548,16.121 C10.1473363,16.121 10.7001641,16.1726661 11.2065,16.276 C11.7128359,16.3793338 12.1623314,16.5549988 12.555,16.803 C12.9476686,17.0510012 13.2628321,17.3919978 13.5005,17.826 C13.7381679,18.2600022 13.8776665,18.8076634 13.919,19.469 L18.631,19.469 C18.631,18.1876603 18.3881691,17.0975045 17.9025,16.1985 C17.4168309,15.2994955 16.7606708,14.5606696 15.934,13.982 C15.1073292,13.4033304 14.1618387,12.9848346 13.0975,12.7265 C12.0331613,12.4681654 10.9223391,12.339 9.765,12.339 C8.77299504,12.339 7.78100496,12.473332 6.789,12.742 C5.79699504,13.010668 4.90833726,13.4239972 4.123,13.982 C3.33766274,14.5400028 2.7021691,15.2374958 2.2165,16.0745 C1.73083091,16.9115042 1.488,17.8983276 1.488,19.035 C1.488,20.0476717 1.67916476,20.9104964 2.0615,21.6235 C2.44383525,22.3365036 2.9449969,22.9306643 3.565,23.406 C4.1850031,23.8813357 4.88766274,24.2688318 5.673,24.5685 C6.45833726,24.8681682 7.2643292,25.1213323 8.091,25.328 C8.89700403,25.5553345 9.69266274,25.7619991 10.478,25.948 C11.2633373,26.1340009 11.9659969,26.3509988 12.586,26.599 C13.2060031,26.8470012 13.7071648,27.1569981 14.0895,27.529 C14.4718352,27.9010019 14.663,28.3866637 14.663,28.986 C14.663,29.5440028 14.5183348,30.0038315 14.229,30.3655 C13.9396652,30.7271685 13.5780022,31.0113323 13.144,31.218 C12.7099978,31.4246677 12.2450025,31.5641663 11.749,31.6365 C11.2529975,31.7088337 10.7880022,31.745 10.354,31.745 C9.71333013,31.745 9.09333633,31.6675008 8.494,31.5125 C7.89466367,31.3574992 7.37283556,31.1198349 6.9285,30.7995 C6.48416445,30.4791651 6.12766801,30.0606692 5.859,29.544 C5.59033199,29.0273307 5.456,28.3970037 5.456,27.653 L5.456,27.653 Z M36.828,35 L36.828,18.973 L32.426,18.973 L32.426,27.374 C32.426,29.0066748 32.157336,30.1794964 31.62,30.8925 C31.082664,31.6055036 30.2146727,31.962 29.016,31.962 C27.9619947,31.962 27.2283354,31.6365033 26.815,30.9855 C26.4016646,30.3344967 26.195,29.3476733 26.195,28.025 L26.195,18.973 L21.793,18.973 L21.793,28.831 C21.793,29.823005 21.8808325,30.7271626 22.0565,31.5435 C22.2321675,32.3598374 22.5369978,33.0521638 22.971,33.6205 C23.4050022,34.1888362 23.9991629,34.6279984 24.7535,34.938 C25.5078371,35.2480015 26.4739941,35.403 27.652,35.403 C28.5820047,35.403 29.4913289,35.1963354 30.38,34.783 C31.2686711,34.3696646 31.9919972,33.6980046 32.55,32.768 L32.643,32.768 L32.643,35 L36.828,35 Z M51.925,27.002 C51.925,27.6633366 51.8526674,28.3039969 51.708,28.924 C51.5633326,29.5440031 51.3360016,30.0916643 51.026,30.567 C50.7159985,31.0423357 50.3285023,31.4194986 49.8635,31.6985 C49.3984977,31.9775014 48.8353366,32.117 48.174,32.117 C47.5333301,32.117 46.9753357,31.9775014 46.5,31.6985 C46.0246643,31.4194986 45.6320016,31.0423357 45.322,30.567 C45.0119985,30.0916643 44.7846674,29.5440031 44.64,28.924 C44.4953326,28.3039969 44.423,27.6633366 44.423,27.002 C44.423,26.3199966 44.4953326,25.6690031 44.64,25.049 C44.7846674,24.4289969 45.0119985,23.8813357 45.322,23.406 C45.6320016,22.9306643 46.0246643,22.5535014 46.5,22.2745 C46.9753357,21.9954986 47.5333301,21.856 48.174,21.856 C48.8353366,21.856 49.3984977,21.9954986 49.8635,22.2745 C50.3285023,22.5535014 50.7159985,22.9306643 51.026,23.406 C51.3360016,23.8813357 51.5633326,24.4289969 51.708,25.049 C51.8526674,25.6690031 51.925,26.3199966 51.925,27.002 L51.925,27.002 Z M40.176,12.866 L40.176,35 L44.361,35 L44.361,32.954 L44.423,32.954 C44.8983357,33.8426711 45.6009954,34.4729981 46.531,34.845 C47.4610047,35.2170019 48.5149941,35.403 49.693,35.403 C50.499004,35.403 51.2946627,35.2376683 52.08,34.907 C52.8653373,34.5763317 53.5731635,34.0700034 54.2035,33.388 C54.8338365,32.7059966 55.3453314,31.8328387 55.738,30.7685 C56.1306686,29.7041613 56.327,28.4383407 56.327,26.971 C56.327,25.5036593 56.1306686,24.2378387 55.738,23.1735 C55.3453314,22.1091613 54.8338365,21.2360034 54.2035,20.554 C53.5731635,19.8719966 52.8653373,19.3656683 52.08,19.035 C51.2946627,18.7043317 50.499004,18.539 49.693,18.539 C48.700995,18.539 47.7451713,18.7301648 46.8255,19.1125 C45.9058287,19.4948352 45.177336,20.0993292 44.64,20.926 L44.578,20.926 L44.578,12.866 L40.176,12.866 Z M62.527,29.792 L58.342,29.792 C58.3833335,30.866672 58.6261644,31.7604964 59.0705,32.4735 C59.5148356,33.1865036 60.0831632,33.7599978 60.7755,34.194 C61.4678368,34.6280022 62.2583289,34.9379991 63.147,35.124 C64.0356711,35.3100009 64.9449954,35.403 65.875,35.403 C66.7843379,35.403 67.6781623,35.3151675 68.5565,35.1395 C69.4348377,34.9638325 70.2149966,34.6590022 70.897,34.225 C71.5790034,33.7909978 72.1318312,33.2175036 72.5555,32.5045 C72.9791688,31.7914964 73.191,30.9080053 73.191,29.854 C73.191,29.1099963 73.0463348,28.4848359 72.757,27.9785 C72.4676652,27.4721641 72.0853357,27.0485017 71.61,26.7075 C71.1346643,26.3664983 70.5921697,26.0926677 69.9825,25.886 C69.3728303,25.6793323 68.7476699,25.5036674 68.107,25.359 C67.4869969,25.2143326 66.8773363,25.0800006 66.278,24.956 C65.6786637,24.8319994 65.1465023,24.6925008 64.6815,24.5375 C64.2164977,24.3824992 63.8393348,24.1810012 63.55,23.933 C63.2606652,23.6849988 63.116,23.3646686 63.116,22.972 C63.116,22.6413317 63.1986658,22.3778343 63.364,22.1815 C63.5293342,21.9851657 63.7308321,21.8353338 63.9685,21.732 C64.2061679,21.6286661 64.4696652,21.5615002 64.759,21.5305 C65.0483348,21.4994998 65.3169988,21.484 65.565,21.484 C66.3503373,21.484 67.0323304,21.6338318 67.611,21.9335 C68.1896696,22.2331682 68.5099997,22.8066624 68.572,23.654 L72.757,23.654 C72.6743329,22.661995 72.4211688,21.8405033 71.9975,21.1895 C71.5738312,20.5384967 71.0416699,20.0166686 70.401,19.624 C69.7603301,19.2313314 69.0318374,18.9523342 68.2155,18.787 C67.3991626,18.6216658 66.5570043,18.539 65.689,18.539 C64.8209957,18.539 63.9736708,18.6164992 63.147,18.7715 C62.3203292,18.9265008 61.5763366,19.1951648 60.915,19.5775 C60.2536634,19.9598352 59.721502,20.4816634 59.3185,21.143 C58.915498,21.8043366 58.714,22.6516615 58.714,23.685 C58.714,24.3876702 58.8586652,24.9818309 59.148,25.4675 C59.4373348,25.9531691 59.8196643,26.3561651 60.295,26.6765 C60.7703357,26.9968349 61.3128303,27.2551657 61.9225,27.4515 C62.5321697,27.6478343 63.1573301,27.8183326 63.798,27.963 C65.3686745,28.2936683 66.5931623,28.6243317 67.4715,28.955 C68.3498377,29.2856683 68.789,29.7816634 68.789,30.443 C68.789,30.8356686 68.6960009,31.1611654 68.51,31.4195 C68.3239991,31.6778346 68.0915014,31.8844992 67.8125,32.0395 C67.5334986,32.1945008 67.2235017,32.3081663 66.8825,32.3805 C66.5414983,32.4528337 66.2160016,32.489 65.906,32.489 C65.4719978,32.489 65.053502,32.4373338 64.6505,32.334 C64.247498,32.2306661 63.8910016,32.0705011 63.581,31.8535 C63.2709985,31.6364989 63.0178343,31.3575017 62.8215,31.0165 C62.6251657,30.6754983 62.527,30.2673357 62.527,29.792 L62.527,29.792 Z M86.676,24.615 L90.985,24.615 C90.9229997,23.5816615 90.6750022,22.6878371 90.241,21.9335 C89.8069978,21.1791629 89.2438368,20.5488359 88.5515,20.0425 C87.8591632,19.5361641 87.0738377,19.1590012 86.1955,18.911 C85.3171623,18.6629988 84.4026714,18.539 83.452,18.539 C82.1499935,18.539 80.9926717,18.7559978 79.98,19.19 C78.9673283,19.6240022 78.1096702,20.2284961 77.407,21.0035 C76.7043298,21.7785039 76.1721685,22.6981613 75.8105,23.7625 C75.4488315,24.8268387 75.268,25.9789938 75.268,27.219 C75.268,28.4176727 75.4643314,29.5181617 75.857,30.5205 C76.2496686,31.5228383 76.7973298,32.385663 77.5,33.109 C78.2026702,33.8323369 79.0551617,34.395498 80.0575,34.7985 C81.0598383,35.201502 82.1603273,35.403 83.359,35.403 C85.4876773,35.403 87.2339932,34.8450056 88.598,33.729 C89.9620068,32.6129944 90.7886652,30.9906773 91.078,28.862 L86.831,28.862 C86.6863326,29.854005 86.3298362,30.6444971 85.7615,31.2335 C85.1931638,31.8225029 84.3820053,32.117 83.328,32.117 C82.6459966,32.117 82.0673357,31.9620015 81.592,31.652 C81.1166643,31.3419984 80.7395014,30.9441691 80.4605,30.4585 C80.1814986,29.9728309 79.9800006,29.4303363 79.856,28.831 C79.7319994,28.2316637 79.67,27.6426696 79.67,27.064 C79.67,26.4646637 79.7319994,25.8601697 79.856,25.2505 C79.9800006,24.6408303 80.1918318,24.0828359 80.4915,23.5765 C80.7911682,23.0701641 81.1786643,22.6568349 81.654,22.3365 C82.1293357,22.0161651 82.7183298,21.856 83.421,21.856 C85.3016761,21.856 86.3866652,22.7756575 86.676,24.615 L86.676,24.615 Z M93.558,18.973 L93.558,35 L97.96,35 L97.96,27.777 C97.96,27.053663 98.0323326,26.3820031 98.177,25.762 C98.3216674,25.1419969 98.5644983,24.5995023 98.9055,24.1345 C99.2465017,23.6694977 99.6959972,23.302668 100.254,23.034 C100.812003,22.765332 101.493996,22.631 102.3,22.631 C102.568668,22.631 102.847665,22.6464998 103.137,22.6775 C103.426335,22.7085002 103.674332,22.7446665 103.881,22.786 L103.881,18.694 C103.529665,18.5906661 103.209335,18.539 102.92,18.539 C102.361997,18.539 101.824669,18.6216658 101.308,18.787 C100.791331,18.9523342 100.305669,19.1848318 99.851,19.4845 C99.3963311,19.7841682 98.9933351,20.1458312 98.642,20.5695 C98.2906649,20.9931688 98.0116677,21.4529975 97.805,21.949 L97.743,21.949 L97.743,18.973 L93.558,18.973 Z M110.143,16.493 L110.143,12.866 L105.741,12.866 L105.741,16.493 L110.143,16.493 Z M105.741,18.973 L105.741,35 L110.143,35 L110.143,18.973 L105.741,18.973 Z M125.364,27.002 C125.364,27.6633366 125.291667,28.3039969 125.147,28.924 C125.002333,29.5440031 124.775002,30.0916643 124.465,30.567 C124.154998,31.0423357 123.767502,31.4194986 123.3025,31.6985 C122.837498,31.9775014 122.274337,32.117 121.613,32.117 C120.97233,32.117 120.414336,31.9775014 119.939,31.6985 C119.463664,31.4194986 119.071002,31.0423357 118.761,30.567 C118.450998,30.0916643 118.223667,29.5440031 118.079,28.924 C117.934333,28.3039969 117.862,27.6633366 117.862,27.002 C117.862,26.3199966 117.934333,25.6690031 118.079,25.049 C118.223667,24.4289969 118.450998,23.8813357 118.761,23.406 C119.071002,22.9306643 119.463664,22.5535014 119.939,22.2745 C120.414336,21.9954986 120.97233,21.856 121.613,21.856 C122.274337,21.856 122.837498,21.9954986 123.3025,22.2745 C123.767502,22.5535014 124.154998,22.9306643 124.465,23.406 C124.775002,23.8813357 125.002333,24.4289969 125.147,25.049 C125.291667,25.6690031 125.364,26.3199966 125.364,27.002 L125.364,27.002 Z M113.615,12.866 L113.615,35 L117.8,35 L117.8,32.954 L117.862,32.954 C118.337336,33.8426711 119.039995,34.4729981 119.97,34.845 C120.900005,35.2170019 121.953994,35.403 123.132,35.403 C123.938004,35.403 124.733663,35.2376683 125.519,34.907 C126.304337,34.5763317 127.012164,34.0700034 127.6425,33.388 C128.272836,32.7059966 128.784331,31.8328387 129.177,30.7685 C129.569669,29.7041613 129.766,28.4383407 129.766,26.971 C129.766,25.5036593 129.569669,24.2378387 129.177,23.1735 C128.784331,22.1091613 128.272836,21.2360034 127.6425,20.554 C127.012164,19.8719966 126.304337,19.3656683 125.519,19.035 C124.733663,18.7043317 123.938004,18.539 123.132,18.539 C122.139995,18.539 121.184171,18.7301648 120.2645,19.1125 C119.344829,19.4948352 118.616336,20.0993292 118.079,20.926 L118.017,20.926 L118.017,12.866 L113.615,12.866 Z M143.344,25.266 L136.183,25.266 C136.203667,24.9559984 136.270833,24.6046686 136.3845,24.212 C136.498167,23.8193314 136.694499,23.4473351 136.9735,23.096 C137.252501,22.7446649 137.624498,22.4501679 138.0895,22.2125 C138.554502,21.9748321 139.13833,21.856 139.841,21.856 C140.915672,21.856 141.716497,22.1453304 142.2435,22.724 C142.770503,23.3026696 143.137332,24.1499944 143.344,25.266 L143.344,25.266 Z M136.183,28.056 L147.746,28.056 C147.828667,26.8159938 147.725335,25.6276723 147.436,24.491 C147.146665,23.3543276 146.676503,22.3416711 146.0255,21.453 C145.374497,20.5643289 144.542672,19.8565026 143.53,19.3295 C142.517328,18.8024974 141.329007,18.539 139.965,18.539 C138.745661,18.539 137.634838,18.7559978 136.6325,19.19 C135.630162,19.6240022 134.767337,20.2181629 134.044,20.9725 C133.320663,21.7268371 132.762669,22.6206615 132.37,23.654 C131.977331,24.6873385 131.781,25.8033273 131.781,27.002 C131.781,28.2420062 131.972165,29.3786615 132.3545,30.412 C132.736835,31.4453385 133.27933,32.3339963 133.982,33.078 C134.68467,33.8220037 135.542328,34.395498 136.555,34.7985 C137.567672,35.201502 138.704327,35.403 139.965,35.403 C141.783676,35.403 143.33366,34.9896708 144.615,34.163 C145.89634,33.3363292 146.846997,31.9620096 147.467,30.04 L143.592,30.04 C143.447333,30.5360025 143.05467,31.0061644 142.414,31.4505 C141.77333,31.8948356 141.008671,32.117 140.12,32.117 C138.879994,32.117 137.929337,31.7966699 137.268,31.156 C136.606663,30.5153301 136.245,29.4820071 136.183,28.056 L136.183,28.056 Z" id="Subscribe" fill="#595757"></path>
            </g>
        </g>
    </g>
</svg>