<?xml version="1.0" encoding="UTF-8" standalone="no"?>
<svg width="48px" height="48px" viewBox="0 0 48 48" version="1.1" xmlns="http://www.w3.org/2000/svg" xmlns:xlink="http://www.w3.org/1999/xlink">
    <!-- Generator: Sketch 3.6.1 (26313) - http://www.bohemiancoding.com/sketch -->
    <title>up</title>
    <desc>Created with Sketch.</desc>
    <defs></defs>
    <g id="Page-1" stroke="none" stroke-width="1" fill="none" fill-rule="evenodd">
        <g id="Artboard-1" transform="translate(-347.000000, -12.000000)" fill="#000000">
            <path d="M371.551546,28.3765839 C371.053658,27.874472 370.246382,27.874472 369.748454,28.3765839 L363.373446,34.8051589 C362.875518,35.3072708 362.875518,36.1213293 363.373446,36.6234412 C363.871374,37.1255531 364.678649,37.1255933 365.176577,36.6234412 L369.374998,32.3897022 L369.374998,44.714285 C369.374998,45.4243613 369.94584,46 370.65,46 C371.35416,46 371.925002,45.4243613 371.925002,44.714285 L371.925002,32.3897022 L376.123463,36.6234412 C376.372407,36.8744771 376.698727,36.999995 377.025008,36.999995 C377.351289,36.999995 377.67761,36.8744771 377.926554,36.623401 C378.424482,36.1212891 378.424482,35.3072708 377.926554,34.8051589 L371.551546,28.3765839 Z" id="Shape"></path>
        </g>
    </g>
</svg>